SplineFontDB: 3.2
FontName: Knitting
FullName: Knitting
FamilyName: Knitting
Weight: Regular
Copyright: Copyright (c) 2023, Jose D. Montoya\nBased heavily on the svg files from https://github.com/marnen/knitting_symbols
UComments: "2023-2-24: Created with FontForge (http://fontforge.org)"
Version: 001.000
ItalicAngle: 0
UnderlinePosition: -100
UnderlineWidth: 50
Ascent: 800
Descent: 200
InvalidEm: 0
LayerCount: 2
Layer: 0 0 "Back" 1
Layer: 1 0 "Fore" 0
XUID: [1021 563 -1015392511 12160333]
StyleMap: 0x0000
FSType: 0
OS2Version: 0
OS2_WeightWidthSlopeOnly: 0
OS2_UseTypoMetrics: 1
CreationTime: 1677260062
ModificationTime: 1677643212
OS2TypoAscent: 0
OS2TypoAOffset: 1
OS2TypoDescent: 0
OS2TypoDOffset: 1
OS2TypoLinegap: 90
OS2WinAscent: 0
OS2WinAOffset: 1
OS2WinDescent: 0
OS2WinDOffset: 1
HheadAscent: 0
HheadAOffset: 1
HheadDescent: 0
HheadDOffset: 1
OS2Vendor: 'PfEd'
MarkAttachClasses: 1
DEI: 91125
Encoding: UnicodeFull
UnicodeInterp: none
NameList: AGL For New Fonts
DisplaySize: -48
AntiAlias: 1
FitToEm: 0
WinInfo: 26 26 9
BeginPrivate: 0
EndPrivate
BeginChars: 1114113 101

StartChar: uni007F
Encoding: 127 127 0
Width: 956
Flags: W
HStem: 253.162 335.069<293.025 638.074>
LayerCount: 2
Fore
SplineSet
827.618164062 420.696289062 m 0
 827.618164062 328.231445312 665.380859375 253.162109375 465.549804688 253.162109375 c 0
 265.717773438 253.162109375 103.48046875 328.231445312 103.48046875 420.696289062 c 0
 103.48046875 513.161132812 265.717773438 588.231445312 465.549804688 588.231445312 c 0
 665.380859375 588.231445312 827.618164062 513.161132812 827.618164062 420.696289062 c 0
EndSplineSet
EndChar

StartChar: crossleft
Encoding: 128 128 1
Width: 855
Flags: W
HStem: 316.301 30.0693<345.609 353.03>
LayerCount: 2
Fore
SplineSet
816.21484375 537.370117188 m 6
 832.025390625 543 837.872070312 513.40625 821.609375 507.30078125 c 6
 821.848632812 505.967773438 526.025390625 396 525.8515625 396.265625 c 6
 509.01171875 389.9296875 497.135742188 418.703125 515.0625 425.370117188 c 6
 515.0625 425.370117188 816.025390625 537 816.21484375 537.370117188 c 6
34.0625 233.370117188 m 6
 15.02734375 226.302734375 25.8056640625 197.194335938 44.8515625 204.265625 c 6
 345.609375 316.30078125 l 6
 361.66015625 322.260742188 357.34375 346.370117188 340.21484375 346.370117188 c 4
 338.318359375 346.370117188 336.500976562 346.029296875 334.8203125 345.405273438 c 6
 34.0625 233.370117188 l 6
826.221679688 204.256835938 m 6
 848.159179688 198.234375 854.318359375 226.966796875 836.965820312 233.37890625 c 6
 43.8291015625 526.448242188 l 6
 33.7626953125 530.16796875 22.939453125 522.701171875 22.939453125 511.887695312 c 4
 22.939453125 505.211914062 27.1650390625 499.514648438 33.0849609375 497.327148438 c 6
 826.221679688 204.256835938 l 6
EndSplineSet
EndChar

StartChar: crossleft_purl
Encoding: 129 129 2
Width: 866
Flags: W
HStem: 209.301 31.0342<208.184 220.904 401.938 414.659> 322.301 30.0693<356.609 363.303>
LayerCount: 2
Fore
SplineSet
512.0625 414.370117188 m 4
 493.02734375 407.302734375 504.805664062 378.194335938 523.8515625 385.265625 c 6
 825.609375 497.30078125 l 6
 841.66015625 503.260742188 836.34375 527.370117188 819.21484375 527.370117188 c 4
 816.418945312 527.370117188 816.418945312 527.370117188 512.0625 414.370117188 c 4
220.904296875 240.334960938 m 6
 200.590820312 240.334960938 200.590820312 209.30078125 220.904296875 209.30078125 c 6
 401.938476562 209.30078125 l 6
 422.251953125 209.30078125 422.251953125 240.334960938 401.938476562 240.334960938 c 6
 220.904296875 240.334960938 l 6
43.0625 239.370117188 m 4
 24.02734375 232.302734375 35.8056640625 203.194335938 54.8515625 210.265625 c 6
 356.609375 322.30078125 l 6
 372.66015625 328.260742188 367.34375 352.370117188 350.21484375 352.370117188 c 4
 347.418945312 352.370117188 347.418945312 352.370117188 43.0625 239.370117188 c 4
836.221679688 210.256835938 m 6
 858.159179688 204.234375 864.318359375 232.966796875 846.965820312 239.37890625 c 4
 51.240234375 533.405273438 51.240234375 533.405273438 48.45703125 533.405273438 c 4
 31.314453125 533.405273438 27.0126953125 509.265625 43.0849609375 503.327148438 c 6
 836.221679688 210.256835938 l 6
EndSplineSet
EndChar

StartChar: crossright
Encoding: 130 130 3
Width: 912
Flags: W
HStem: 210.301 30.0781<51.6357 59.084> 323.301 30.0693<543.02 550.44> 498.301 30.0693<73.0196 80.4404>
LayerCount: 2
Fore
SplineSet
382.198242188 386.265625 m 6
 404.138671875 380.213867188 410.323242188 408.93359375 392.987304688 415.370117188 c 4
 88.630859375 528.370117188 88.630859375 528.370117188 85.8349609375 528.370117188 c 4
 68.7060546875 528.370117188 64.3896484375 504.260742188 80.4404296875 498.30078125 c 6
 382.198242188 386.265625 l 6
852.198242188 211.265625 m 6
 874.138671875 205.213867188 880.323242188 233.93359375 862.987304688 240.370117188 c 4
 558.630859375 353.370117188 558.630859375 353.370117188 555.834960938 353.370117188 c 4
 538.706054688 353.370117188 534.389648438 329.260742188 550.440429688 323.30078125 c 6
 852.198242188 211.265625 l 6
59.083984375 240.37890625 m 6
 43.01171875 234.439453125 47.3134765625 210.30078125 64.4560546875 210.30078125 c 4
 67.2392578125 210.30078125 67.2392578125 210.30078125 862.96484375 504.327148438 c 4
 882.009765625 511.364257812 871.27734375 540.490234375 852.220703125 533.448242188 c 6
 59.083984375 240.37890625 l 6
EndSplineSet
EndChar

StartChar: dip_purl
Encoding: 131 131 4
Width: 653
Flags: W
HStem: -174.987 40.9092<211.802 226.863 431.409 446.471> 722.763 40.9082<250.694 407.579>
VStem: 115.522 40.9092<-158.209 -143.146 549.99 628.288> 501.842 40.9082<-158.209 -143.146 549.99 628.288>
LayerCount: 2
Fore
SplineSet
431.409179688 -174.987304688 m 2
 458.185546875 -174.987304688 458.185546875 -134.078125 431.409179688 -134.078125 c 2
 226.86328125 -134.078125 l 2
 200.086914062 -134.078125 200.086914062 -174.987304688 226.86328125 -174.987304688 c 2
 431.409179688 -174.987304688 l 2
115.522460938 -143.146484375 m 2
 115.522460938 -169.923828125 156.431640625 -169.923828125 156.431640625 -143.146484375 c 2
 156.431640625 549.990234375 l 2
 156.431640625 645.30859375 233.834960938 722.762695312 329.13671875 722.762695312 c 0
 424.4375 722.762695312 501.841796875 645.30859375 501.841796875 549.990234375 c 2
 501.841796875 -143.146484375 l 2
 501.841796875 -169.923828125 542.75 -169.923828125 542.75 -143.146484375 c 2
 542.75 549.990234375 l 2
 542.75 667.874023438 447.036132812 763.670898438 329.13671875 763.670898438 c 0
 211.236328125 763.670898438 115.522460938 667.874023438 115.522460938 549.990234375 c 2
 115.522460938 -143.146484375 l 2
EndSplineSet
EndChar

StartChar: crossright_purl
Encoding: 132 132 5
Width: 935
Flags: W
HStem: 302.301 31.0342<68.7487 76.084 508.391 521.111 702.146 714.866> 415.301 30.0693<560.02 567.44> 591.301 30.0693<70.0196 77.4404>
LayerCount: 2
Fore
SplineSet
379.198242188 479.265625 m 6
 401.138671875 473.213867188 407.323242188 501.93359375 389.987304688 508.370117188 c 4
 85.630859375 621.370117188 85.630859375 621.370117188 82.8349609375 621.370117188 c 4
 65.7060546875 621.370117188 61.3896484375 597.260742188 77.4404296875 591.30078125 c 6
 379.198242188 479.265625 l 6
702.145507812 302.30078125 m 6
 722.458984375 302.30078125 722.458984375 333.334960938 702.145507812 333.334960938 c 6
 521.111328125 333.334960938 l 6
 500.797851562 333.334960938 500.797851562 302.30078125 521.111328125 302.30078125 c 6
 702.145507812 302.30078125 l 6
869.198242188 303.265625 m 6
 891.138671875 297.213867188 897.323242188 325.93359375 879.987304688 332.370117188 c 4
 575.630859375 445.370117188 575.630859375 445.370117188 572.834960938 445.370117188 c 4
 555.706054688 445.370117188 551.389648438 421.260742188 567.440429688 415.30078125 c 6
 869.198242188 303.265625 l 6
76.083984375 332.37890625 m 6
 60.01171875 326.439453125 64.3134765625 302.30078125 81.4560546875 302.30078125 c 4
 84.2392578125 302.30078125 84.2392578125 302.30078125 879.96484375 596.327148438 c 4
 899.009765625 603.364257812 888.27734375 632.490234375 869.220703125 625.448242188 c 6
 76.083984375 332.37890625 l 6
EndSplineSet
EndChar

StartChar: c2over1left
Encoding: 133 133 6
Width: 942
Flags: W
HStem: 305.534 19.75<35.4527 60.933 453.544 477.344 891.302 915.283> 499.319 19.75<35.1065 59.0865 473.045 496.845 889.456 914.936>
LayerCount: 2
Fore
SplineSet
906.711914062 303 m 0
 917.709960938 303 921.029296875 318.153320312 911.021484375 322.750976562 c 0
 483.701171875 519.069335938 483.701171875 519.069335938 481.435546875 519.069335938 c 0
 470.4375 519.069335938 467.118164062 503.916992188 477.125976562 499.319335938 c 0
 904.446289062 303 904.446289062 303 906.711914062 303 c 0
908.991210938 498.6328125 m 2
 918.731445312 498.6328125 921.979492188 519.372070312 904.431640625 518.817382812 c 2
 700.397460938 472.8515625 l 2
 689.091796875 470.3046875 688.952148438 452.161132812 704.95703125 452.666992188 c 2
 908.991210938 498.6328125 l 2
41.3974609375 325.970703125 m 2
 31.6572265625 325.970703125 28.4091796875 305.231445312 45.95703125 305.786132812 c 2
 249.991210938 351.751953125 l 2
 261.296875 354.298828125 261.436523438 372.442382812 245.431640625 371.936523438 c 2
 41.3974609375 325.970703125 l 2
43.677734375 521.603515625 m 0
 32.6787109375 521.603515625 29.3603515625 506.450195312 39.3671875 501.852539062 c 0
 466.6875 305.534179688 466.6875 305.534179688 468.953125 305.534179688 c 0
 479.952148438 305.534179688 483.271484375 320.686523438 473.263671875 325.284179688 c 0
 45.943359375 521.603515625 45.943359375 521.603515625 43.677734375 521.603515625 c 0
EndSplineSet
EndChar

StartChar: c2over1left_purl
Encoding: 134 134 7
Width: 941
Flags: W
HStem: 363.534 20.6895<40.8029 73.448 210.611 218.229 338.919 346.536 458.544 481.711 915.021 917.432> 559.853 19.751<41.9568 64.0865 477.679 500.845 900.739 918.586>
LayerCount: 2
Fore
SplineSet
910.711914062 368 m 4
 921.709960938 368 925.029296875 383.153320312 915.021484375 387.750976562 c 4
 487.701171875 584.069335938 487.701171875 584.069335938 485.435546875 584.069335938 c 4
 474.4375 584.069335938 471.118164062 568.916992188 481.125976562 564.319335938 c 4
 908.446289062 368 908.446289062 368 910.711914062 368 c 4
218.228515625 384.223632812 m 6
 204.686523438 384.223632812 204.686523438 363.534179688 218.228515625 363.534179688 c 6
 338.918945312 363.534179688 l 6
 352.4609375 363.534179688 352.4609375 384.223632812 338.918945312 384.223632812 c 6
 218.228515625 384.223632812 l 6
912.991210938 563.6328125 m 6
 922.731445312 563.6328125 925.979492188 584.372070312 908.431640625 583.817382812 c 6
 704.397460938 537.8515625 l 6
 693.091796875 535.3046875 692.952148438 517.161132812 708.95703125 517.666992188 c 6
 912.991210938 563.6328125 l 6
46.3974609375 383.970703125 m 6
 36.6572265625 383.970703125 33.4091796875 363.231445312 50.95703125 363.786132812 c 6
 254.991210938 409.751953125 l 6
 266.296875 412.298828125 266.436523438 430.442382812 250.431640625 429.936523438 c 6
 46.3974609375 383.970703125 l 6
48.677734375 579.603515625 m 4
 37.6787109375 579.603515625 34.3603515625 564.450195312 44.3671875 559.852539062 c 4
 471.6875 363.534179688 471.6875 363.534179688 473.953125 363.534179688 c 4
 484.952148438 363.534179688 488.271484375 378.686523438 478.263671875 383.284179688 c 4
 50.943359375 579.603515625 50.943359375 579.603515625 48.677734375 579.603515625 c 4
EndSplineSet
EndChar

StartChar: c2over1right
Encoding: 135 135 8
Width: 941
Flags: W
LayerCount: 2
Fore
SplineSet
38.681640625 346 m 2
 26.3671875 340.342773438 35.0068359375 321.540039062 47.30078125 327.188476562 c 2
 472.577148438 522.568359375 l 2
 484.891601562 528.225585938 476.251953125 547.028320312 463.95703125 541.379882812 c 2
 38.681640625 346 l 2
42.9912109375 542.318359375 m 0
 30.796875 542.318359375 28.849609375 524.553710938 40.7109375 521.881835938 c 0
 245.866210938 475.663085938 245.866210938 475.663085938 247.025390625 475.663085938 c 0
 259.219726562 475.663085938 261.166992188 493.427734375 249.305664062 496.100585938 c 2
 249.305664062 496.100585938 45.271484375 542.06640625 42.9912109375 542.318359375 c 0
915.715820312 331.534179688 m 0
 927.91015625 331.534179688 929.857421875 349.298828125 917.99609375 351.970703125 c 0
 712.840820312 398.189453125 712.840820312 398.189453125 711.681640625 398.189453125 c 0
 699.48828125 398.189453125 697.540039062 380.424804688 709.40234375 377.751953125 c 2
 709.40234375 377.751953125 913.436523438 331.786132812 915.715820312 331.534179688 c 0
920.026367188 527.852539062 m 2
 932.33984375 533.509765625 923.701171875 552.3125 911.40625 546.6640625 c 2
 486.129882812 351.284179688 l 2
 473.81640625 345.626953125 482.455078125 326.82421875 494.75 332.47265625 c 2
 920.026367188 527.852539062 l 2
EndSplineSet
EndChar

StartChar: c2over1right_purl
Encoding: 136 136 9
Width: 915
Flags: W
HStem: 313.534 20.6895<593.953 603.475 724.165 733.687 851.571 903.265>
LayerCount: 2
Fore
SplineSet
26.681640625 339 m 2
 14.3671875 333.342773438 23.0068359375 314.540039062 35.30078125 320.188476562 c 2
 460.577148438 515.568359375 l 2
 472.891601562 521.225585938 464.251953125 540.028320312 451.95703125 534.379882812 c 2
 26.681640625 339 l 2
724.165039062 313.534179688 m 2
 737.70703125 313.534179688 737.70703125 334.223632812 724.165039062 334.223632812 c 2
 603.474609375 334.223632812 l 2
 589.932617188 334.223632812 589.932617188 313.534179688 603.474609375 313.534179688 c 2
 724.165039062 313.534179688 l 2
30.9912109375 535.318359375 m 0
 18.796875 535.318359375 16.849609375 517.553710938 28.7109375 514.881835938 c 0
 233.866210938 468.663085938 233.866210938 468.663085938 235.025390625 468.663085938 c 0
 247.219726562 468.663085938 249.166992188 486.427734375 237.305664062 489.100585938 c 2
 237.305664062 489.100585938 33.271484375 535.06640625 30.9912109375 535.318359375 c 0
893.715820312 313.534179688 m 0
 905.91015625 313.534179688 907.857421875 331.298828125 895.99609375 333.970703125 c 0
 690.840820312 380.189453125 690.840820312 380.189453125 689.681640625 380.189453125 c 0
 677.48828125 380.189453125 675.540039062 362.424804688 687.40234375 359.751953125 c 2
 687.40234375 359.751953125 891.436523438 313.786132812 893.715820312 313.534179688 c 0
898.026367188 509.852539062 m 2
 910.33984375 515.509765625 901.701171875 534.3125 889.40625 528.6640625 c 2
 464.129882812 333.284179688 l 2
 451.81640625 327.626953125 460.455078125 308.82421875 472.75 314.47265625 c 2
 898.026367188 509.852539062 l 2
EndSplineSet
EndChar

StartChar: uni0089
Encoding: 137 137 10
Width: 957
Flags: W
HStem: 354.15 15.2725<24.4349 57.1556 227.012 259.748 603.015 603.415 930.602 931.002> 388.947 15.0234<342.971 375.701> 414.734 15.0225<239.817 272.531>
LayerCount: 2
Fore
SplineSet
591.37890625 490 m 2
 584.43359375 490 581.736328125 474.440429688 595.276367188 474.977539062 c 2
 728.627929688 509.52734375 l 2
 736.85546875 511.659179688 736.974609375 525.036132812 724.73046875 524.549804688 c 2
 591.37890625 490 l 2
369.989257812 388.947265625 m 2
 376.934570312 388.947265625 379.6328125 404.5078125 366.091796875 403.970703125 c 2
 232.740234375 369.419921875 l 2
 224.512695312 367.2890625 224.393554688 353.912109375 236.637695312 354.397460938 c 2
 369.989257812 388.947265625 l 2
694.548828125 464.213867188 m 2
 687.604492188 464.213867188 684.90625 448.653320312 698.448242188 449.19140625 c 2
 931.20703125 509.52734375 l 2
 939.43359375 511.66015625 939.552734375 525.036132812 927.307617188 524.549804688 c 2
 694.548828125 464.213867188 l 2
266.8203125 414.734375 m 2
 273.763671875 414.734375 276.462890625 430.293945312 262.919921875 429.756835938 c 2
 30.162109375 369.419921875 l 2
 21.935546875 367.287109375 21.81640625 353.911132812 34.0615234375 354.397460938 c 2
 266.8203125 414.734375 l 2
359.697265625 516.202148438 m 0
 350.686523438 516.202148438 349.0546875 503.171875 357.759765625 500.9296875 c 0
 927.673828125 354.150390625 927.673828125 354.150390625 928.663085938 354.150390625 c 0
 937.674804688 354.150390625 939.306640625 367.181640625 930.6015625 369.422851562 c 2
 930.6015625 369.422851562 361.635742188 515.958007812 359.697265625 516.202148438 c 0
32.111328125 516.202148438 m 0
 23.1005859375 516.202148438 21.46875 503.171875 30.173828125 500.9296875 c 0
 600.087890625 354.150390625 600.087890625 354.150390625 601.077148438 354.150390625 c 0
 610.087890625 354.150390625 611.719726562 367.181640625 603.014648438 369.422851562 c 2
 603.014648438 369.422851562 34.0498046875 515.958007812 32.111328125 516.202148438 c 0
EndSplineSet
EndChar

StartChar: c2over2left_purl
Encoding: 138 138 11
Width: 959
Flags: W
HStem: 344.15 15.5176<24.4355 56.3162 132.303 139.854 213.146 220.696 227.013 258.988 334.889 342.439 415.732 423.283 603.015 603.415 930.602 931.002> 378.947 15.0234<342.971 375.701> 404.734 15.0225<239.817 272.531> 429.191 15.0225<690.838 723.553> 454.978 15.0225<587.667 620.397> 490.93 15.2725<24.6564 56.4733 352.242 384.059 704.664 736.058 906.816 938.636>
LayerCount: 2
Fore
SplineSet
342.439453125 359.66796875 m 6
 332.283203125 359.66796875 332.283203125 344.150390625 342.439453125 344.150390625 c 6
 415.732421875 344.150390625 l 6
 425.888671875 344.150390625 425.888671875 359.66796875 415.732421875 359.66796875 c 6
 342.439453125 359.66796875 l 6
139.853515625 359.66796875 m 6
 129.696289062 359.66796875 129.696289062 344.150390625 139.853515625 344.150390625 c 6
 213.145507812 344.150390625 l 6
 223.302734375 344.150390625 223.302734375 359.66796875 213.145507812 359.66796875 c 6
 139.853515625 359.66796875 l 6
593.37890625 470 m 6
 586.43359375 470 583.736328125 454.440429688 597.276367188 454.977539062 c 6
 730.627929688 489.52734375 l 6
 738.85546875 491.659179688 738.974609375 505.036132812 726.73046875 504.549804688 c 6
 593.37890625 470 l 6
369.989257812 378.947265625 m 6
 376.934570312 378.947265625 379.6328125 394.5078125 366.091796875 393.970703125 c 6
 232.740234375 359.419921875 l 6
 224.512695312 357.2890625 224.393554688 343.912109375 236.637695312 344.397460938 c 6
 369.989257812 378.947265625 l 6
696.548828125 444.213867188 m 6
 689.604492188 444.213867188 686.90625 428.653320312 700.448242188 429.19140625 c 6
 933.20703125 489.52734375 l 6
 941.43359375 491.66015625 941.552734375 505.036132812 929.307617188 504.549804688 c 6
 696.548828125 444.213867188 l 6
266.8203125 404.734375 m 6
 273.763671875 404.734375 276.462890625 420.293945312 262.919921875 419.756835938 c 6
 30.162109375 359.419921875 l 6
 21.935546875 357.287109375 21.81640625 343.911132812 34.0615234375 344.397460938 c 6
 266.8203125 404.734375 l 6
359.697265625 506.202148438 m 4
 350.686523438 506.202148438 349.0546875 493.171875 357.759765625 490.9296875 c 4
 927.673828125 344.150390625 927.673828125 344.150390625 928.663085938 344.150390625 c 4
 937.674804688 344.150390625 939.306640625 357.181640625 930.6015625 359.422851562 c 6
 930.6015625 359.422851562 361.635742188 505.958007812 359.697265625 506.202148438 c 4
32.111328125 506.202148438 m 4
 23.1005859375 506.202148438 21.46875 493.171875 30.173828125 490.9296875 c 4
 600.087890625 344.150390625 600.087890625 344.150390625 601.077148438 344.150390625 c 4
 610.087890625 344.150390625 611.719726562 357.181640625 603.014648438 359.422851562 c 6
 603.014648438 359.422851562 34.0498046875 505.958007812 32.111328125 506.202148438 c 4
EndSplineSet
EndChar

StartChar: c2over2right_purl
Encoding: 140 140 12
Width: 956
Flags: W
HStem: 334.15 50.0674<583.377 628.14> 334.15 15.5176<24.0849 56.0817 351.671 383.669 537.14 544.69 617.983 625.534 727.683 733.346 739.726 747.277 820.569 828.12 930.261 935.923> 480.797 15.2705<24.765 25.165 227.343 227.743 575.975 608.349 903.561 935.935>
LayerCount: 2
Fore
SplineSet
617.983398438 334.150390625 m 2xa0
 628.139648438 334.150390625 628.139648438 349.66796875 617.983398438 349.66796875 c 2
 544.690429688 349.66796875 l 2
 534.534179688 349.66796875 534.534179688 334.150390625 544.690429688 334.150390625 c 2x60
 617.983398438 334.150390625 l 2xa0
820.569335938 334.150390625 m 2
 830.7265625 334.150390625 830.7265625 349.66796875 820.569335938 349.66796875 c 2
 747.27734375 349.66796875 l 2
 737.120117188 349.66796875 737.120117188 334.150390625 747.27734375 334.150390625 c 2
 820.569335938 334.150390625 l 2
363.043945312 446 m 0
 372.048828125 446 373.688476562 459.016601562 364.9921875 461.26953125 c 0
 248.546875 491.439453125 231.08984375 496.067382812 229.692382812 496.067382812 c 0
 220.6875 496.067382812 219.047851562 483.049804688 227.743164062 480.796875 c 2
 227.743164062 480.796875 361.094726562 446.247070312 363.043945312 446 c 0
592.381835938 384.217773438 m 0xa0
 583.376953125 384.217773438 581.737304688 371.200195312 590.43359375 368.947265625 c 0
 706.87890625 338.77734375 724.336914062 334.150390625 725.733398438 334.150390625 c 0x60
 734.73828125 334.150390625 736.377929688 347.166992188 727.682617188 349.419921875 c 2
 727.682617188 349.419921875 594.331054688 383.970703125 592.381835938 384.217773438 c 0xa0
259.873046875 420.212890625 m 0
 268.877929688 420.212890625 270.517578125 433.229492188 261.823242188 435.483398438 c 0
 28.109375 496.067382812 28.109375 496.067382812 27.1142578125 496.067382812 c 0
 18.1103515625 496.067382812 16.4697265625 483.05078125 25.1650390625 480.796875 c 2
 25.1650390625 480.796875 257.923828125 420.4609375 259.873046875 420.212890625 c 0
695.552734375 410.00390625 m 0
 686.547851562 410.00390625 684.908203125 396.98828125 693.602539062 394.734375 c 0
 927.31640625 334.150390625 927.31640625 334.150390625 928.311523438 334.150390625 c 0
 937.315429688 334.150390625 938.956054688 347.166015625 930.260742188 349.419921875 c 2
 930.260742188 349.419921875 697.502929688 409.756835938 695.552734375 410.00390625 c 0
602.663085938 480.9296875 m 2
 609.625 480.9296875 612.310546875 496.489257812 598.787109375 495.958007812 c 2
 29.8212890625 349.422851562 l 2
 21.5830078125 347.30078125 21.46484375 333.9140625 33.697265625 334.39453125 c 2
 602.663085938 480.9296875 l 2
930.249023438 480.9296875 m 2
 937.2109375 480.9296875 939.897460938 496.489257812 926.373046875 495.958007812 c 2
 357.408203125 349.422851562 l 2
 349.168945312 347.30078125 349.05078125 333.9140625 361.284179688 334.39453125 c 2
 930.249023438 480.9296875 l 2
EndSplineSet
EndChar

StartChar: decrease3to1centered
Encoding: 141 141 13
Width: 824
Flags: W
VStem: 379.581 62.0684<30.6321 50.3604 653.775 673.504>
LayerCount: 2
Fore
SplineSet
441.649414062 653.775390625 m 6
 441.649414062 694.40234375 379.581054688 694.40234375 379.581054688 653.775390625 c 6
 379.581054688 50.3603515625 l 6
 379.581054688 9.7333984375 441.649414062 9.7333984375 441.649414062 50.3603515625 c 6
 441.649414062 653.775390625 l 6
681.744140625 45.6953125 m 6
 710.462890625 16.9775390625 754.374023438 60.8271484375 725.625 89.576171875 c 6
 449.831054688 365.37109375 l 6
 421.11328125 394.088867188 377.201171875 350.239257812 405.950195312 321.490234375 c 6
 681.744140625 45.6953125 l 6
415.280273438 321.490234375 m 6
 443.998046875 350.208007812 400.1484375 394.120117188 371.399414062 365.37109375 c 6
 95.60546875 89.576171875 l 6
 66.8876953125 60.8583984375 110.737304688 16.9462890625 139.486328125 45.6953125 c 6
 415.280273438 321.490234375 l 6
EndSplineSet
EndChar

StartChar: decrease3to1left
Encoding: 142 142 14
Width: 824
Flags: W
VStem: 404.581 62.0684<30.6321 50.3604 326.257 345.985>
LayerCount: 2
Fore
SplineSet
466.649414062 326.256835938 m 6
 466.649414062 366.883789062 404.581054688 366.883789062 404.581054688 326.256835938 c 6
 404.581054688 50.3603515625 l 6
 404.581054688 9.7333984375 466.649414062 9.7333984375 466.649414062 50.3603515625 c 6
 466.649414062 326.256835938 l 6
120.60546875 89.576171875 m 6
 91.8876953125 60.8583984375 135.737304688 16.9462890625 164.486328125 45.6953125 c 6
 440.280273438 321.490234375 l 6
 468.998046875 350.208007812 425.1484375 394.120117188 396.399414062 365.37109375 c 6
 120.60546875 89.576171875 l 6
164.486328125 675.715820312 m 6
 135.767578125 704.43359375 91.8564453125 660.583984375 120.60546875 631.834960938 c 6
 706.744140625 45.6953125 l 6
 735.462890625 16.9775390625 779.374023438 60.8271484375 750.625 89.576171875 c 6
 164.486328125 675.715820312 l 6
EndSplineSet
EndChar

StartChar: decrease3to1right
Encoding: 143 143 15
Width: 824
Flags: W
VStem: 378.581 62.0684<30.6321 50.3604 326.257 345.985>
LayerCount: 2
Fore
SplineSet
440.649414062 326.256835938 m 6
 440.649414062 366.883789062 378.581054688 366.883789062 378.581054688 326.256835938 c 6
 378.581054688 50.3603515625 l 6
 378.581054688 9.7333984375 440.649414062 9.7333984375 440.649414062 50.3603515625 c 6
 440.649414062 326.256835938 l 6
680.744140625 45.6953125 m 6
 709.462890625 16.9775390625 753.374023438 60.8271484375 724.625 89.576171875 c 6
 448.831054688 365.37109375 l 6
 420.11328125 394.088867188 376.201171875 350.239257812 404.950195312 321.490234375 c 6
 680.744140625 45.6953125 l 6
724.625 631.834960938 m 6
 753.342773438 660.552734375 709.493164062 704.46484375 680.744140625 675.715820312 c 6
 94.60546875 89.576171875 l 6
 65.8876953125 60.8583984375 109.737304688 16.9462890625 138.486328125 45.6953125 c 6
 724.625 631.834960938 l 6
EndSplineSet
EndChar

StartChar: decrease4to1left
Encoding: 144 144 16
Width: 824
Flags: W
LayerCount: 2
Fore
SplineSet
471.879882812 336.60546875 m 6
 458.329101562 374.875 399.786132812 354.217773438 413.350585938 315.907226562 c 6
 511.041015625 40.01171875 l 6
 524.591796875 1.7421875 583.134765625 22.3994140625 569.569335938 60.7099609375 c 6
 471.879882812 336.60546875 l 6
471.879882812 315.907226562 m 6
 483.420898438 359.728515625 425.745117188 371.608398438 413.350585938 336.60546875 c 4
 313.890625 55.7099609375 313.890625 55.7099609375 313.890625 50.3603515625 c 4
 313.890625 15.84375 362.677734375 7.4990234375 374.189453125 40.01171875 c 6
 471.879882812 315.907226562 l 6
127.60546875 89.576171875 m 6
 98.8876953125 60.8583984375 142.737304688 16.9462890625 171.486328125 45.6953125 c 6
 447.280273438 321.490234375 l 6
 475.998046875 350.208007812 432.1484375 394.120117188 403.399414062 365.37109375 c 6
 127.60546875 89.576171875 l 6
171.486328125 675.715820312 m 6
 142.767578125 704.43359375 98.8564453125 660.583984375 127.60546875 631.834960938 c 6
 713.744140625 45.6953125 l 6
 742.462890625 16.9775390625 786.374023438 60.8271484375 757.625 89.576171875 c 6
 171.486328125 675.715820312 l 6
EndSplineSet
EndChar

StartChar: decreaseleft2w
Encoding: 154 154 17
Width: 911
Flags: W
HStem: 256.301 30.0781<66.6113 74.0596 877.94 885.389>
LayerCount: 2
Fore
SplineSet
74.0595703125 286.37890625 m 2
 57.9873046875 280.439453125 62.2890625 256.30078125 79.431640625 256.30078125 c 0
 83.712890625 256.30078125 265.69921875 324.099609375 481.372070312 403.791992188 c 0
 500.416992188 410.829101562 489.684570312 439.955078125 470.627929688 432.913085938 c 2
 74.0595703125 286.37890625 l 2
84.8037109375 579.448242188 m 2
 62.8662109375 585.471679688 56.70703125 556.739257812 74.0595703125 550.327148438 c 0
 869.78515625 256.30078125 869.78515625 256.30078125 872.568359375 256.30078125 c 0
 889.7109375 256.30078125 894.012695312 280.439453125 877.940429688 286.37890625 c 2
 84.8037109375 579.448242188 l 2
EndSplineSet
EndChar

StartChar: twistleft_purl
Encoding: 174 174 18
Width: 911
Flags: W
HStem: 218.301 31.0342<233.158 245.879 426.913 439.634> 512.397 30.0078<872.109 879.334>
VStem: 685.627 30.8779<188.088 269.165>
LayerCount: 2
Fore
SplineSet
748.141601562 373.887695312 m 4
 752.947265625 387.090820312 783.994140625 381.411132812 773.833007812 356.46875 c 4
 735.984375 300.596679688 674.916015625 294.979492188 645.650390625 292.288085938 c 4
 606.0078125 288.641601562 485.168945312 277.52734375 341 330 c 4
 278.801757812 352.638671875 77.4248046875 432.668945312 105.250976562 510.690429688 c 4
 112.23828125 529.889648438 141.275390625 519.3125 134.483398438 500.268554688 c 4
 124.706054688 472.854492188 210.421875 410.553710938 351.614257812 359.163085938 c 4
 409.599609375 338.05859375 483.83984375 311.037109375 657.936523438 324.520507812 c 4
 704.13671875 328.211914062 735.346679688 355.000976562 748.141601562 373.887695312 c 4
685.626953125 202.142578125 m 4
 680.822265625 188.939453125 708.256835938 173.333984375 716.504882812 198.97265625 c 4
 723.42578125 266.1015625 680.254882812 309.658203125 659.56640625 330.532226562 c 4
 631.541992188 358.806640625 546.118164062 444.995117188 401.94921875 497.467773438 c 4
 339.750976562 520.106445312 134.044921875 588.2421875 105.209960938 510.587890625 c 4
 98.2216796875 491.388671875 127.264648438 480.827148438 134.302734375 499.78125 c 4
 144.43359375 527.06640625 250.142578125 519.6953125 391.334960938 468.3046875 c 4
 449.3203125 447.200195312 523.560546875 420.178710938 648.259765625 297.943359375 c 4
 681.278320312 265.41796875 687.966796875 224.8359375 685.626953125 202.142578125 c 4
245.87890625 249.334960938 m 6
 225.565429688 249.334960938 225.565429688 218.30078125 245.87890625 218.30078125 c 6
 426.913085938 218.30078125 l 6
 447.2265625 218.30078125 447.2265625 249.334960938 426.913085938 249.334960938 c 6
 245.87890625 249.334960938 l 6
872.109375 512.397460938 m 6
 888.006835938 518.505859375 883.584960938 542.405273438 866.551757812 542.405273438 c 4
 863.666015625 542.405273438 863.666015625 542.405273438 591.765625 437.9296875 c 4
 572.80859375 430.646484375 583.920898438 401.663085938 602.881835938 408.94921875 c 6
 872.109375 512.397460938 l 6
68.201171875 248.41796875 m 6
 49.1064453125 241.5234375 59.6181640625 212.317382812 78.7294921875 219.217773438 c 6
 302.850585938 300.137695312 l 6
 321.9453125 307.032226562 311.432617188 336.23828125 292.322265625 329.337890625 c 6
 68.201171875 248.41796875 l 6
EndSplineSet
EndChar

StartChar: twistleft
Encoding: 175 175 19
Width: 911
Flags: W
HStem: 532.397 30.0078<872.109 879.334>
VStem: 667.478 30.8779<218.226 299.303>
LayerCount: 2
Fore
SplineSet
729.9921875 404.025390625 m 4
 734.797851562 417.228515625 765.844726562 411.548828125 755.68359375 386.606445312 c 4
 717.834960938 330.734375 656.766601562 325.1171875 627.500976562 322.42578125 c 4
 587.858398438 318.779296875 322.850585938 360.137695312 322.850585938 360.137695312 c 4
 116.483398438 435.249023438 59.275390625 462.806640625 87.1015625 540.828125 c 4
 94.0888671875 560.02734375 123.125976562 549.450195312 116.333984375 530.40625 c 4
 106.556640625 502.9921875 192.272460938 440.69140625 333.46484375 389.30078125 c 4
 391.450195312 368.196289062 465.690429688 341.174804688 639.787109375 354.658203125 c 4
 685.987304688 358.349609375 717.197265625 385.138671875 729.9921875 404.025390625 c 4
667.477539062 232.280273438 m 4
 662.672851562 219.077148438 690.107421875 203.471679688 698.35546875 229.110351562 c 4
 705.276367188 296.239257812 662.10546875 339.795898438 641.416992188 360.669921875 c 4
 613.392578125 388.944335938 527.96875 475.1328125 383.799804688 527.60546875 c 4
 321.6015625 550.244140625 115.895507812 618.379882812 87.060546875 540.725585938 c 4
 80.072265625 521.526367188 109.115234375 510.96484375 116.153320312 529.918945312 c 4
 126.284179688 557.204101562 231.993164062 549.833007812 373.185546875 498.442382812 c 4
 431.170898438 477.337890625 505.411132812 450.31640625 630.110351562 328.081054688 c 4
 663.12890625 295.555664062 669.817382812 254.973632812 667.477539062 232.280273438 c 4
872.109375 532.397460938 m 6
 888.006835938 538.505859375 883.584960938 562.405273438 866.551757812 562.405273438 c 4
 863.666015625 562.405273438 863.666015625 562.405273438 591.765625 457.9296875 c 4
 572.80859375 450.646484375 583.920898438 421.663085938 602.881835938 428.94921875 c 6
 872.109375 532.397460938 l 6
68.201171875 268.41796875 m 6
 49.1064453125 261.5234375 59.6181640625 232.317382812 78.7294921875 239.217773438 c 6
 302.850585938 320.137695312 l 6
 321.9453125 327.032226562 311.432617188 356.23828125 292.322265625 349.337890625 c 6
 68.201171875 268.41796875 l 6
EndSplineSet
EndChar

StartChar: degree
Encoding: 176 176 20
Width: 823
Flags: W
HStem: 14.877 62.0693<242.099 591.901> 102.133 60.792<183.116 361.429 472.571 650.884> 652.741 62.0654<363.827 470.173>
VStem: 238.471 62.0693<341.621 568.192> 533.46 62.0693<341.624 568.195>
LayerCount: 2
Fore
SplineSet
572.172851562 14.876953125 m 2
 261.827148438 14.876953125 l 2
 221.200195312 14.876953125 221.200195312 76.9462890625 261.827148438 76.9462890625 c 2
 572.172851562 76.9462890625 l 2
 612.799804688 76.9462890625 612.799804688 14.876953125 572.172851562 14.876953125 c 2
575.6640625 162.921875 m 0
 680.489257812 164.177734375 667.165039062 233.833007812 709.16015625 233.833007812 c 0
 734.693359375 233.833007812 749.310546875 204.44140625 733.926757812 184.102539062 c 0
 690.33984375 126.477539062 635.48046875 102.04296875 560.670898438 102.12890625 c 0
 511.36328125 107.557617188 445.537109375 113.30859375 395.19140625 162.947265625 c 0
 389.5625 168.509765625 380.84375 176.196289062 370.858398438 184.947265625 c 0
 342.615234375 209.697265625 303.500976562 242.403320312 282.333984375 282.032226562 c 0
 260.760742188 322.325195312 238.470703125 373.887695312 238.470703125 442.426757812 c 0
 238.470703125 546.146484375 275.19140625 714.413085938 416.912109375 714.806640625 c 4
 457.640625 714.806640625 457.633789062 652.850585938 417.087890625 652.73828125 c 4
 340.395507812 652.525390625 300.540039062 548.431640625 300.540039062 442.426757812 c 0
 300.540039062 387.716796875 317.447265625 347.954101562 337.091796875 311.266601562 c 0
 349.78515625 287.5 383.515625 256.370117188 411.735351562 231.640625 c 0
 421.766601562 222.849609375 431.005859375 214.80078125 438.80859375 207.08984375 c 0
 470.322265625 176.018554688 516.369140625 169.455078125 575.6640625 162.921875 c 0
258.3359375 162.924804688 m 0
 317.630859375 169.458007812 363.677734375 176.021484375 395.19140625 207.092773438 c 0
 402.994140625 214.803710938 412.233398438 222.852539062 422.264648438 231.643554688 c 0
 450.484375 256.373046875 484.21484375 287.502929688 496.908203125 311.26953125 c 0
 516.552734375 347.95703125 533.459960938 387.719726562 533.459960938 442.4296875 c 0
 533.459960938 548.434570312 493.604492188 652.528320312 416.912109375 652.741210938 c 0
 376.366210938 652.853515625 376.359375 714.809570312 417.087890625 714.809570312 c 0
 558.80859375 714.416015625 595.529296875 546.149414062 595.529296875 442.4296875 c 0
 595.529296875 373.890625 573.239257812 322.328125 551.666015625 282.03515625 c 0
 530.499023438 242.40625 491.384765625 209.700195312 463.141601562 184.950195312 c 0
 453.15625 176.200195312 444.4375 168.512695312 438.80859375 162.950195312 c 0
 388.462890625 113.311523438 322.63671875 107.560546875 273.329101562 102.1328125 c 0
 198.51953125 102.045898438 143.66015625 126.48046875 100.073242188 184.10546875 c 0
 84.689453125 204.444335938 99.306640625 233.8359375 124.83984375 233.8359375 c 0
 166.834960938 233.8359375 153.510742188 164.181640625 258.3359375 162.924804688 c 0
EndSplineSet
EndChar

StartChar: uni00B2
Encoding: 178 178 21
Width: 911
Flags: W
HStem: 300.138 30.1172<609.588 617.166> 407.922 30.0078<328.251 335.475>
VStem: 242.334 30.8779<203.593 284.67>
LayerCount: 2
Fore
SplineSet
210.698242188 389.392578125 m 0
 223.493164062 370.504882812 254.703125 343.716796875 300.903320312 340.025390625 c 0
 475 326.541992188 549.240234375 353.563476562 607.225585938 374.66796875 c 0
 748.41796875 426.057617188 834.1328125 488.359375 824.356445312 515.7734375 c 4
 817.563476562 534.817382812 846.6015625 545.39453125 853.587890625 526.1953125 c 4
 881.415039062 448.173828125 680.038085938 368.143554688 617.83984375 345.504882812 c 0
 473.670898438 293.032226562 352.83203125 304.146484375 313.189453125 307.79296875 c 0
 283.923828125 310.484375 222.85546875 316.1015625 185.006835938 371.973632812 c 0
 174.845703125 396.916015625 205.892578125 402.595703125 210.698242188 389.392578125 c 0
273.211914062 217.647460938 m 0
 278.017578125 204.444335938 250.583007812 188.838867188 242.333984375 214.4765625 c 0
 235.4140625 281.606445312 278.584960938 325.163085938 299.2734375 346.037109375 c 0
 327.297851562 374.311523438 412.721679688 460.5 556.890625 512.97265625 c 0
 619.088867188 535.611328125 824.794921875 603.74609375 853.62890625 526.092773438 c 0
 860.618164062 506.893554688 831.575195312 496.33203125 824.537109375 515.286132812 c 0
 814.405273438 542.5703125 708.697265625 535.200195312 567.504882812 483.809570312 c 0
 509.51953125 462.705078125 435.279296875 435.68359375 310.580078125 313.447265625 c 0
 277.561523438 280.922851562 270.873046875 240.33984375 273.211914062 217.647460938 c 0
59.0234375 541.377929688 m 2
 37.0634765625 547.640625 30.697265625 519.009765625 47.9072265625 512.397460938 c 0
 319.807617188 407.921875 319.807617188 407.921875 322.693359375 407.921875 c 0
 339.7265625 407.921875 344.1484375 431.821289062 328.250976562 437.9296875 c 2
 59.0234375 541.377929688 l 2
841.287109375 219.217773438 m 2
 863.2109375 213.333007812 869.25 242.123046875 851.815429688 248.41796875 c 0
 625.154296875 330.254882812 625.154296875 330.254882812 622.430664062 330.254882812 c 0
 605.224609375 330.254882812 600.993164062 305.977539062 617.166015625 300.137695312 c 2
 841.287109375 219.217773438 l 2
EndSplineSet
EndChar

StartChar: uni00B3
Encoding: 179 179 22
Width: 705
Flags: W
HStem: 66.6016 61.874<141.082 246.379 426.745 530.918> 652.741 62.0654<282.827 389.173>
VStem: 157.471 62.0693<342.648 568.192> 452.46 62.0693<342.272 568.195>
LayerCount: 2
Fore
SplineSet
157.333007812 128.475585938 m 0
 121.923828125 128.475585938 119.794921875 66.6015625 160.825195312 66.6015625 c 0
 219.907226562 73.0322265625 309.106037824 89.4014515743 357.80859375 144.462890625 c 0
 483 286 439.669307987 231.331059762 471.078125 282.83203125 c 0
 494.192761514 320.73305234 514.529296875 373.510742188 514.529296875 442.4296875 c 0
 514.529296875 546.149414062 477.80859375 714.416015625 336.087890625 714.809570312 c 4
 295.359375 714.809570312 295.366210938 652.853515625 335.912109375 652.741210938 c 4
 412.604492188 652.528320312 452.459960938 548.434570312 452.459960938 442.4296875 c 0
 452.459960938 320.629882812 359.321289062 231.786132812 326.904296875 200.864257812 c 0
 322.374023438 196.541992188 318.122070312 192.489257812 314.19140625 188.60546875 c 0
 280.262695312 155.154296875 206.201171875 133.958007812 157.333007812 128.475585938 c 0
514.666992188 128.47265625 m 0
 465.798828125 133.955078125 391.737304688 155.150390625 357.80859375 188.602539062 c 0
 353.877929688 192.486328125 349.625976562 196.5390625 345.095703125 200.861328125 c 0
 312.678710938 231.783203125 219.540039062 320.626953125 219.540039062 442.426757812 c 0
 219.540039062 548.431640625 259.395507812 652.525390625 336.087890625 652.73828125 c 0
 376.633789062 652.850585938 376.640625 714.806640625 335.912109375 714.806640625 c 0
 194.19140625 714.413085938 157.470703125 546.146484375 157.470703125 442.426757812 c 0
 157.470703125 373.5078125 181.110351562 322.556640625 200.922851562 282.829101562 c 0
 226.8828125 230.737304688 245.034179688 212.799804688 314.19140625 144.459960938 c 0
 366.537109375 92.8486328125 452.092773438 73.029296875 511.174804688 66.5986328125 c 0
 552.205078125 66.5986328125 550.076171875 128.47265625 514.666992188 128.47265625 c 0
EndSplineSet
EndChar

StartChar: A
Encoding: 65 65 23
Width: 611
Flags: W
HStem: 155.75 237.5<243.733 379.938> 722.763 40.9082<230.694 387.579>
VStem: 95.5225 40.9092<-158.209 -143.146 549.99 628.288> 192.75 237.5<206.409 342.615> 481.842 40.9082<-158.209 -143.146 549.99 628.288>
LayerCount: 2
Fore
SplineSet
95.5224609375 -143.146484375 m 2
 95.5224609375 -169.923828125 136.431640625 -169.923828125 136.431640625 -143.146484375 c 2
 136.431640625 549.990234375 l 2
 136.431640625 645.30859375 213.834960938 722.762695312 309.13671875 722.762695312 c 0
 404.4375 722.762695312 481.841796875 645.30859375 481.841796875 549.990234375 c 2
 481.841796875 -143.146484375 l 2
 481.841796875 -169.923828125 522.75 -169.923828125 522.75 -143.146484375 c 2
 522.75 549.990234375 l 2
 522.75 667.874023438 427.036132812 763.670898438 309.13671875 763.670898438 c 0
 191.236328125 763.670898438 95.5224609375 667.874023438 95.5224609375 549.990234375 c 2
 95.5224609375 -143.146484375 l 2
311.75 393.25 m 4
 344.75 393.25 372.75 381.666015625 395.75 358.5 c 4
 418.75 335.333984375 430.25 307.416015625 430.25 274.75 c 4
 430.25 241.75 418.75 213.666015625 395.75 190.5 c 4
 372.75 167.333984375 344.75 155.75 311.75 155.75 c 260
 278.75 155.75 250.666015625 167.333984375 227.5 190.5 c 4
 204.333984375 213.666015625 192.75 241.75 192.75 274.75 c 4
 192.75 307.416015625 204.416015625 335.333984375 227.75 358.5 c 4
 251.083984375 381.666015625 279.083984375 393.25 311.75 393.25 c 4
EndSplineSet
EndChar

StartChar: B
Encoding: 66 66 24
Width: 824
Flags: W
HStem: 228.653 31.0342<370.492 489.508> 521.724 31.0342<370.492 489.508>
VStem: 267.948 31.0342<331.198 450.214> 561.018 31.0352<331.198 450.214>
LayerCount: 2
Fore
SplineSet
98.87109375 755.715820312 m 6
 70.15234375 784.43359375 26.2412109375 740.583984375 54.990234375 711.834960938 c 6
 761.12890625 25.6953125 l 6
 789.84765625 -3.0224609375 833.758789062 40.8271484375 805.009765625 69.576171875 c 6
 98.87109375 755.715820312 l 6
561.017578125 390.706054688 m 4
 561.017578125 318.400390625 502.3046875 259.6875 430 259.6875 c 4
 357.6953125 259.6875 298.982421875 318.400390625 298.982421875 390.706054688 c 4
 298.982421875 463.010742188 357.6953125 521.723632812 430 521.723632812 c 4
 502.3046875 521.723632812 561.017578125 463.010742188 561.017578125 390.706054688 c 4
592.052734375 390.706054688 m 4
 592.052734375 480.139648438 519.43359375 552.7578125 430 552.7578125 c 4
 340.56640625 552.7578125 267.948242188 480.139648438 267.948242188 390.706054688 c 4
 267.948242188 301.271484375 340.56640625 228.653320312 430 228.653320312 c 4
 519.43359375 228.653320312 592.052734375 301.271484375 592.052734375 390.706054688 c 4
EndSplineSet
EndChar

StartChar: C
Encoding: 67 67 25
Width: 705
Flags: MW
HStem: 86 34<705.807 823.627> 168.653 34<280.492 399.508> 461.724 34<280.492 399.508>
VStem: 177.948 34<271.198 390.214> 471.018 34<271.198 390.214>
LayerCount: 2
Fore
SplineSet
512 160 m 0
 447 193 375.0703125 253.783203125 328.6796875 291.150390625 c 0
 274.624023438 334.692382812 303.58203125 364.172851562 358 321 c 0
 404.626953125 284.0078125 484 220 539 188 c 0
 580.245117188 164.002929688 662.646484375 141.57421875 797 120 c 0
 861.149414062 109.69921875 851.416015625 76.6064453125 787 86 c 0
 683.370117188 101.112304688 566.797851562 132.1796875 512 160 c 0
471.017578125 330.706054688 m 0
 471.017578125 258.400390625 412.3046875 199.6875 340 199.6875 c 0
 267.6953125 199.6875 208.982421875 258.400390625 208.982421875 330.706054688 c 0
 208.982421875 403.010742188 267.6953125 461.723632812 340 461.723632812 c 0
 412.3046875 461.723632812 471.017578125 403.010742188 471.017578125 330.706054688 c 0
  Spiro
    471.018 330.706 o
    453.152 264.661 o
    406.045 217.553 o
    340 199.688 o
    273.955 217.553 o
    226.848 264.661 o
    208.982 330.706 o
    226.848 396.751 o
    273.955 443.858 o
    340 461.724 o
    406.045 443.858 o
    453.152 396.751 o
    0 0 z
  EndSpiro
502.052734375 330.706054688 m 0
 502.052734375 420.139648438 429.43359375 492.7578125 340 492.7578125 c 0
 250.56640625 492.7578125 177.948242188 420.139648438 177.948242188 330.706054688 c 0
 177.948242188 241.271484375 250.56640625 168.653320312 340 168.653320312 c 0
 429.43359375 168.653320312 502.052734375 241.271484375 502.052734375 330.706054688 c 0
EndSplineSet
EndChar

StartChar: D
Encoding: 68 68 26
Width: 628
Flags: W
HStem: 86 34<-63.6268 54.1928> 168.653 31.0342<360.492 479.508> 461.724 31.0342<360.492 479.508>
VStem: 257.947 31.0352<271.198 390.214> 551.018 31.0342<271.198 390.214>
LayerCount: 2
Fore
SplineSet
248 160 m 4
 313 193 384.9296875 253.783203125 431.3203125 291.150390625 c 4
 485.375976562 334.692382812 456.41796875 364.172851562 402 321 c 4
 355.373046875 284.0078125 276 220 221 188 c 4
 179.754882812 164.002929688 97.353515625 141.57421875 -37 120 c 4
 -101.149414062 109.69921875 -91.416015625 76.6064453125 -27 86 c 4
 76.6298828125 101.112304688 193.202148438 132.1796875 248 160 c 4
288.982421875 330.706054688 m 4
 288.982421875 258.400390625 347.6953125 199.6875 420 199.6875 c 4
 492.3046875 199.6875 551.017578125 258.400390625 551.017578125 330.706054688 c 4
 551.017578125 403.010742188 492.3046875 461.723632812 420 461.723632812 c 4
 347.6953125 461.723632812 288.982421875 403.010742188 288.982421875 330.706054688 c 4
  Spiro
    288.982 330.706 o
    306.848 264.661 o
    353.955 217.553 o
    420 199.688 o
    486.045 217.553 o
    533.152 264.661 o
    551.018 330.706 o
    533.152 396.751 o
    486.045 443.858 o
    420 461.724 o
    353.955 443.858 o
    306.848 396.751 o
    0 0 z
  EndSpiro
257.947265625 330.706054688 m 4
 257.947265625 420.139648438 330.56640625 492.7578125 420 492.7578125 c 4
 509.43359375 492.7578125 582.051757812 420.139648438 582.051757812 330.706054688 c 4
 582.051757812 241.271484375 509.43359375 168.653320312 420 168.653320312 c 4
 330.56640625 168.653320312 257.947265625 241.271484375 257.947265625 330.706054688 c 4
EndSplineSet
EndChar

StartChar: E
Encoding: 69 69 27
Width: 705
Flags: W
HStem: 62 35<171.281 565.812> 126 33<-79.943 -7.90001 749.568 794.198>
LayerCount: 2
Fore
SplineSet
-73.0478515625 159 m 4
 -87.546875 162.522460938 -94.9921875 131 -73.0478515625 126 c 4
 90.859375 88.6552734375 199.533203125 62 369.317382812 62 c 28
 528.708007812 62 641.560546875 82.580078125 792.047851562 122 c 4
 806.161132812 125.697265625 800.490234375 158.802734375 785.1171875 155 c 4
 629.366210938 116.470703125 528.708007812 97 369.317382812 97 c 4
 199.533203125 97 87.498046875 120 -73.0478515625 159 c 4
EndSplineSet
EndChar

StartChar: K
Encoding: 75 75 28
Width: 842
Flags: W
HStem: 340.545 38.3584<313.963 505.338>
LayerCount: 2
Fore
SplineSet
505.337890625 340.524414062 m 1
 331.200195312 340.544921875 l 2
 319.993164062 340.544921875 313.958984375 348.73828125 313.958984375 359.506835938 c 0
 313.958984375 370.317382812 319.993164062 378.903320312 331.200195312 378.903320312 c 2
 529.907226562 378.903320312 l 2
 546.286132812 378.903320312 553.182617188 371.14453125 553.182617188 356.920898438 c 0
 553.182617188 341.403320312 547.579101562 334.9375 538.958984375 323.299804688 c 0
 490.682617188 257.3515625 453.182617188 165.1171875 430.337890625 59.5068359375 c 0
 427.321289062 45.73828125 419.130859375 40.9794921875 407.924804688 40.9794921875 c 0
 407.493164062 40.9794921875 407.0625 40.9794921875 406.630859375 40.9794921875 c 0
 394.5625 41.4033203125 385.080078125 47.4453125 385.080078125 58.6484375 c 0
 385.080078125 60.4072265625 385.509765625 62.4755859375 385.94140625 64.234375 c 0
 407.923828125 162.510742188 451.458984375 262.079101562 505.337890625 340.524414062 c 1
763.7265625 344.984375 m 2
 790.877929688 314.8203125 744.8046875 273.24609375 717.5859375 303.486328125 c 2
 407.241210938 648.280273438 l 2
 380.090820312 678.444335938 426.163085938 720.018554688 453.381835938 689.778320312 c 2
 763.7265625 344.984375 l 2
96.896484375 344.985351562 m 2
 407.241210938 689.779296875 l 2
 434.459960938 720.01953125 480.532226562 678.4453125 453.381835938 648.28125 c 6
 143.037109375 303.487304688 l 6
 115.818359375 273.247070312 69.7451171875 314.821289062 96.896484375 344.985351562 c 2
EndSplineSet
EndChar

StartChar: X
Encoding: 88 88 29
Width: 911
Flags: W
HStem: 78.3008 31.0342<480.366 493.087 674.121 686.842> 160.138 30.1172<609.588 617.166> 267.922 30.0078<328.251 335.475>
VStem: 242.334 30.8779<63.5929 144.67>
LayerCount: 2
Fore
SplineSet
210.698242188 249.392578125 m 0
 223.493164062 230.504882812 254.703125 203.716796875 300.903320312 200.025390625 c 0
 475 186.541992188 549.240234375 213.563476562 607.225585938 234.66796875 c 0
 748.41796875 286.057617188 834.1328125 348.359375 824.356445312 375.7734375 c 0
 817.563476562 394.817382812 846.6015625 405.39453125 853.587890625 386.1953125 c 4
 881.415039062 308.173828125 680.038085938 228.143554688 617.83984375 205.504882812 c 4
 473.670898438 153.032226562 352.83203125 164.146484375 313.189453125 167.79296875 c 0
 283.923828125 170.484375 222.85546875 176.1015625 185.006835938 231.973632812 c 0
 174.845703125 256.916015625 205.892578125 262.595703125 210.698242188 249.392578125 c 0
273.211914062 77.6474609375 m 0
 278.017578125 64.4443359375 250.583007812 48.8388671875 242.333984375 74.4765625 c 0
 235.4140625 141.606445312 278.584960938 185.163085938 299.2734375 206.037109375 c 0
 327.297851562 234.311523438 412.721679688 320.5 556.890625 372.97265625 c 0
 619.088867188 395.611328125 824.794921875 463.74609375 853.62890625 386.092773438 c 0
 860.618164062 366.893554688 831.575195312 356.33203125 824.537109375 375.286132812 c 0
 814.405273438 402.5703125 708.697265625 395.200195312 567.504882812 343.809570312 c 0
 509.51953125 322.705078125 435.279296875 295.68359375 310.580078125 173.447265625 c 0
 277.561523438 140.922851562 270.873046875 100.33984375 273.211914062 77.6474609375 c 0
674.12109375 78.30078125 m 2
 694.434570312 78.30078125 694.434570312 109.334960938 674.12109375 109.334960938 c 2
 493.086914062 109.334960938 l 2
 472.7734375 109.334960938 472.7734375 78.30078125 493.086914062 78.30078125 c 2
 674.12109375 78.30078125 l 2
59.0234375 401.377929688 m 2
 37.0634765625 407.640625 30.697265625 379.009765625 47.9072265625 372.397460938 c 0
 319.807617188 267.921875 319.807617188 267.921875 322.693359375 267.921875 c 0
 339.7265625 267.921875 344.1484375 291.821289062 328.250976562 297.9296875 c 2
 59.0234375 401.377929688 l 2
841.287109375 79.2177734375 m 2
 863.2109375 73.3330078125 869.25 102.123046875 851.815429688 108.41796875 c 0
 625.154296875 190.254882812 625.154296875 190.254882812 622.430664062 190.254882812 c 0
 605.224609375 190.254882812 600.993164062 165.977539062 617.166015625 160.137695312 c 2
 841.287109375 79.2177734375 l 2
EndSplineSet
EndChar

StartChar: Z
Encoding: 90 90 30
Width: 824
Flags: W
HStem: 46.6016 62.0352<168.175 315.724 504.276 651.825>
VStem: 85.8955 62.0693<127.663 196.405 629.393 647.935> 258.242 62.0693<300.248 575.416> 378.966 62.0684<646.647 712.645> 499.688 62.0693<300.251 575.419> 672.035 62.0693<127.66 196.402 629.39 647.932>
LayerCount: 2
Fore
SplineSet
733.1953125 196.26953125 m 0
 733.1953125 196.3359375 734.104492188 629.256835938 734.104492188 629.323242188 c 0
 734.104492188 669.911132812 672.120117188 669.973632812 672.03515625 629.389648438 c 2
 672.03515625 629.389648438 671.125976562 196.3359375 671.125976562 196.40234375 c 1
 671.125976562 123.416015625 641.341796875 108.633789062 577.037109375 108.633789062 c 0
 512.428710938 108.67578125 459.65234375 159.278320312 420.529296875 196.791015625 c 0
 377.379882812 238.163085938 320.311523438 290.704101562 320.311523438 422.426757812 c 0
 320.311523438 478.7265625 327.534179688 561.486328125 355.80859375 602.875 c 0
 369.245117188 622.54296875 384.62109375 632.73828125 410 632.73828125 c 4
 427.127929688 632.73828125 441.034179688 646.643554688 441.034179688 663.772460938 c 4
 441.034179688 712.64453125 349.692382812 703.947265625 304.521484375 637.826171875 c 0
 261.256835938 574.495117188 258.2421875 481.024414062 258.2421875 422.426757812 c 0
 258.2421875 268.599609375 332.541015625 195.182617188 377.586914062 151.991210938 c 0
 428.555664062 103.12109375 487.505859375 46.5986328125 565.172851562 46.5986328125 c 0
 617.5859375 46.546875 733.1953125 46.431640625 733.1953125 196.26953125 c 0
86.8046875 196.272460938 m 0
 86.8046875 46.435546875 202.4140625 46.5498046875 254.827148438 46.6015625 c 0
 332.494140625 46.6015625 391.444335938 103.124023438 442.413085938 151.994140625 c 0
 487.458984375 195.185546875 561.7578125 268.602539062 561.7578125 422.4296875 c 0
 561.7578125 481.028320312 558.743164062 574.498046875 515.478515625 637.829101562 c 0
 470.307617188 703.950195312 378.965820312 712.647460938 378.965820312 663.775390625 c 0
 378.965820312 646.647460938 392.872070312 632.741210938 410 632.741210938 c 0
 435.37890625 632.741210938 450.754882812 622.546875 464.19140625 602.877929688 c 0
 492.465820312 561.489257812 499.688476562 478.729492188 499.688476562 422.4296875 c 0
 499.688476562 290.70703125 442.620117188 238.166015625 399.471679688 196.793945312 c 0
 360.34765625 159.282226562 307.571289062 108.678710938 242.962890625 108.63671875 c 0
 178.658203125 108.63671875 148.874023438 123.418945312 148.874023438 196.405273438 c 1
 148.874023438 196.338867188 147.96484375 629.392578125 147.96484375 629.392578125 c 2
 147.879882812 669.9765625 85.8955078125 669.9140625 85.8955078125 629.326171875 c 0
 85.8955078125 629.259765625 86.8046875 196.338867188 86.8046875 196.272460938 c 0
EndSplineSet
EndChar

StartChar: agrave
Encoding: 224 224 31
Width: 998
Flags: W
LayerCount: 2
Back
Fore
SplineSet
54.353515625 762.969726562 m 6
 40.453125 784.51171875 -6.439453125 762.81640625 19.7314453125 724.775390625 c 6
 394.651367188 350.797851562 l 6
 427.69921875 317.833007812 463.079101562 340.998046875 439.208007812 375.694335938 c 6
 54.353515625 762.969726562 l 6
969.774414062 747.961914062 m 4
 980.516601562 776.119140625 947.053710938 798.807617188 926.14453125 777.49609375 c 4
 33.2978515625 -132.5546875 33.2978515625 -132.5546875 31.0859375 -138.353515625 c 4
 20.34375 -166.51171875 53.802734375 -189.198242188 74.7119140625 -167.885742188 c 4
 967.5625 742.162109375 967.5625 742.162109375 969.774414062 747.961914062 c 4
EndSplineSet
EndChar

StartChar: aacute
Encoding: 225 225 32
Width: 998
Flags: W
LayerCount: 2
Fore
SplineSet
953.969726562 -156.646484375 m 6
 975.51171875 -170.546875 953.81640625 -217.439453125 915.775390625 -191.268554688 c 6
 541.797851562 183.651367188 l 6
 508.833007812 216.69921875 531.998046875 252.079101562 566.694335938 228.208007812 c 6
 953.969726562 -156.646484375 l 6
938.961914062 758.774414062 m 4
 967.119140625 769.516601562 989.807617188 736.053710938 968.49609375 715.14453125 c 4
 58.4453125 -177.702148438 58.4453125 -177.702148438 52.646484375 -179.9140625 c 4
 24.48828125 -190.65625 1.8017578125 -157.197265625 23.1142578125 -136.288085938 c 4
 933.162109375 756.5625 933.162109375 756.5625 938.961914062 758.774414062 c 4
EndSplineSet
EndChar

StartChar: NameMe.256
Encoding: 1114112 -1 35
Width: 5600
Flags: HW
LayerCount: 2
Fore
SplineSet
-20 -220 m 1
 5620 -220 l 1
 5620 820 l 1
 -20 820 l 1
 -20 -220 l 1
75 776 m 1
 1388 776 l 1
 2028 310 l 1
 1053 79 l 1
 75 776 l 1
1479 776 m 1
 2785 776 l 1
 3080 562 l 1
 2109 330 l 1
 1479 776 l 1
1609 -180 m 1
 2443 18 l 1
 2721 -180 l 1
 1609 -180 l 1
197 -184 m 1
 4248 776 l 1
 5388 776 l 1
 1360 -184 l 1
 197 -184 l 1
2879 776 m 1
 3991 776 l 1
 3157 578 l 1
 2879 776 l 1
2520 34 m 1
 3491 266 l 1
 4121 -180 l 1
 2815 -180 l 1
 2520 34 l 1
3572 286 m 1
 4547 517 l 1
 5525 -180 l 1
 4212 -180 l 1
 3572 286 l 1
EndSplineSet
EndChar

StartChar: Edieresis
Encoding: 203 203 37
Width: 824
Flags: W
LayerCount: 2
Fore
SplineSet
138.87109375 651.715820312 m 6
 110.15234375 680.43359375 66.2412109375 636.583984375 94.990234375 607.834960938 c 6
 681.12890625 21.6953125 l 6
 709.84765625 -7.0224609375 753.758789062 36.8271484375 725.009765625 65.576171875 c 6
 138.87109375 651.715820312 l 6
745.009765625 607.834960938 m 6
 773.727539062 636.552734375 729.877929688 680.46484375 701.12890625 651.715820312 c 6
 114.990234375 65.576171875 l 6
 86.2724609375 36.8583984375 130.122070312 -7.0537109375 158.87109375 21.6953125 c 6
 745.009765625 607.834960938 l 6
EndSplineSet
EndChar

StartChar: grave
Encoding: 96 96 38
Width: 694
Flags: W
HStem: 6.30469 53.3164<270.759 406.932>
LayerCount: 2
Fore
SplineSet
341.079101562 478.463867188 m 5
 642.001953125 258.189453125 457.904296875 59.015625 334.897460938 59.62109375 c 4
 221.543945312 60.1787109375 60.5087890625 260.452148438 341.079101562 478.463867188 c 5
386 515 m 5
 843.509765625 823.056640625 496.546875 653.35546875 342.884765625 545.73828125 c 5
 271.126953125 596.333984375 99.0859375 712.45703125 99.0859375 662.564453125 c 4
 99.0859375 639.419921875 171.955078125 598.08984375 298 511 c 5
 -41.71875 241.043945312 189.087890625 5.060546875 335.833984375 6.3046875 c 4
 509.544921875 7.7783203125 733.788085938 266.85546875 386 515 c 5
EndSplineSet
EndChar

StartChar: a
Encoding: 97 97 39
Width: 694
Flags: HW
HStem: 18.3047 53.3164<258.759 394.932> 176.25 142.5<278.599 378.092>
VStem: 257.25 142.5<197.753 297.247>
LayerCount: 2
Fore
SplineSet
328.349609375 176.25 m 0
 308.549804688 176.25 291.75 183.200195312 277.950195312 197.099609375 c 0
 264.150390625 211 257.25 227.75 257.25 247.349609375 c 0
 257.25 267.150390625 264.150390625 284 277.950195312 297.900390625 c 0
 291.75 311.799804688 308.549804688 318.75 328.349609375 318.75 c 260
 348.150390625 318.75 365 311.799804688 378.900390625 297.900390625 c 0
 392.799804688 284 399.75 267.150390625 399.75 247.349609375 c 0
 399.75 227.75 392.75 211 378.75 197.099609375 c 4
 364.75 183.200195312 347.94921875 176.25 328.349609375 176.25 c 0
329.079101562 490.463867188 m 1
 630.001953125 270.189453125 445.904296875 71.015625 322.897460938 71.62109375 c 0
 209.543945312 72.1787109375 48.5087890625 272.452148438 329.079101562 490.463867188 c 1
374 527 m 1
 831.509765625 835.056640625 484.546875 665.35546875 330.884765625 557.73828125 c 1
 259.126953125 608.333984375 87.0859375 724.45703125 87.0859375 674.564453125 c 0
 87.0859375 651.419921875 159.955078125 610.08984375 286 523 c 1
 -53.71875 253.043945312 177.087890625 17.060546875 323.833984375 18.3046875 c 0
 497.544921875 19.7783203125 721.788085938 278.85546875 374 527 c 1
EndSplineSet
EndChar

StartChar: b
Encoding: 98 98 40
Width: 841
Flags: HW
VStem: 288.966 62.0684<47.9075 67.6357 653.775 673.504>
LayerCount: 2
Fore
SplineSet
549.650390625 335.75 m 4
 569.450195312 335.75 586.25 328.799804688 600.049804688 314.900390625 c 4
 613.849609375 301 620.75 284.25 620.75 264.650390625 c 4
 620.75 244.849609375 613.849609375 228 600.049804688 214.099609375 c 4
 586.25 200.200195312 569.450195312 193.25 549.650390625 193.25 c 260
 529.849609375 193.25 513 200.200195312 499.099609375 214.099609375 c 4
 485.200195312 228 478.25 244.849609375 478.25 264.650390625 c 4
 478.25 284.25 485.25 301 499.25 314.900390625 c 4
 513.25 328.799804688 530.05078125 335.75 549.650390625 335.75 c 4
288.965820312 67.6357421875 m 2
 288.965820312 27.0087890625 351.034179688 27.0087890625 351.034179688 67.6357421875 c 2
 351.034179688 653.775390625 l 2
 351.034179688 694.40234375 288.965820312 694.40234375 288.965820312 653.775390625 c 2
 288.965820312 67.6357421875 l 2
644.834960938 488.431640625 m 2
 680.784179688 507.465820312 651.7109375 562.30859375 615.854492188 543.32421875 c 2
 322.78515625 388.151367188 l 2
 286.834960938 369.1171875 315.909179688 314.274414062 351.764648438 333.259765625 c 2
 644.834960938 488.431640625 l 2
EndSplineSet
EndChar

StartChar: c
Encoding: 99 99 41
Width: 841
Flags: W
HStem: 193.25 142.5<210.599 310.092>
VStem: 189.25 142.5<214.753 314.247> 458.966 62.0684<47.9075 333.26 388.151 673.504>
LayerCount: 2
Fore
SplineSet
260.349609375 335.75 m 4
 240.549804688 335.75 223.75 328.799804688 209.950195312 314.900390625 c 4
 196.150390625 301 189.25 284.25 189.25 264.650390625 c 4
 189.25 244.849609375 196.150390625 228 209.950195312 214.099609375 c 4
 223.75 200.200195312 240.549804688 193.25 260.349609375 193.25 c 260
 280.150390625 193.25 297 200.200195312 310.900390625 214.099609375 c 4
 324.799804688 228 331.75 244.849609375 331.75 264.650390625 c 4
 331.75 284.25 324.75 301 310.75 314.900390625 c 4
 296.75 328.799804688 279.94921875 335.75 260.349609375 335.75 c 4
521.034179688 67.6357421875 m 2
 521.034179688 27.0087890625 458.965820312 27.0087890625 458.965820312 67.6357421875 c 2
 458.965820312 653.775390625 l 2
 458.965820312 694.40234375 521.034179688 694.40234375 521.034179688 653.775390625 c 2
 521.034179688 67.6357421875 l 2
165.165039062 488.431640625 m 2
 129.215820312 507.465820312 158.2890625 562.30859375 194.145507812 543.32421875 c 2
 487.21484375 388.151367188 l 2
 523.165039062 369.1171875 494.090820312 314.274414062 458.235351562 333.259765625 c 2
 165.165039062 488.431640625 l 2
EndSplineSet
EndChar

StartChar: d
Encoding: 100 100 42
Width: 704
Flags: W
VStem: 130.358 18.0029<345.938 376.254>
LayerCount: 2
Fore
SplineSet
695.009765625 651.834960938 m 2
 723.727539062 680.552734375 679.877929688 724.46484375 651.12890625 695.715820312 c 2
 64.990234375 109.576171875 l 2
 36.2724609375 80.8583984375 80.1220703125 36.9462890625 108.87109375 65.6953125 c 2
 695.009765625 651.834960938 l 2
68.12109375 449.475585938 m 0
 61.9541015625 456.327148438 44.4638671875 445.241210938 56.775390625 432.565429688 c 0
 93.533203125 407.880859375 132.059570312 419.470703125 150.525390625 425.026367188 c 0
 175.537109375 432.553710938 251.779296875 455.4921875 326.583007812 522.844726562 c 0
 358.854492188 551.904296875 461.688476562 650.083007812 425.584960938 690.706054688 c 0
 416.616210938 700.668945312 401.55078125 687.096679688 410.364257812 677.181640625 c 0
 423.048828125 662.908203125 386.220703125 603.942382812 312.958007812 537.977539062 c 0
 282.872070312 510.88671875 244.350585938 476.203125 135.130859375 441.615234375 c 0
 106.1171875 432.505859375 80.546875 441.12890625 68.12109375 449.475585938 c 0
148.361328125 360.365234375 m 0
 141.362304688 373.59375 135.45703125 399.924804688 147.548828125 427.827148438 c 0
 193.361328125 532.833984375 231.8828125 567.518554688 261.971679688 594.608398438 c 0
 335.232421875 660.573242188 397.723632812 691.037109375 410.59375 676.928710938 c 4
 419.533203125 667.127929688 434.60546875 680.692382812 425.635742188 690.655273438 c 4
 389.009765625 730.806640625 280.618164062 638.797851562 248.34765625 609.740234375 c 0
 173.541992188 542.385742188 142.760742188 468.959960938 132.66015625 444.870117188 c 0
 125.206054688 427.08984375 109.6484375 389.982421875 130.358398438 350.846679688 c 0
 141.677734375 337.276367188 154.53125 353.514648438 148.361328125 360.365234375 c 0
333.124023438 514.697265625 m 1024
EndSplineSet
EndChar

StartChar: e
Encoding: 101 101 43
Width: 704
Flags: W
VStem: 621.639 18.0029<345.938 376.254>
LayerCount: 2
Fore
SplineSet
74.990234375 651.834960938 m 2
 46.2724609375 680.552734375 90.1220703125 724.46484375 118.87109375 695.715820312 c 2
 705.009765625 109.576171875 l 2
 733.727539062 80.8583984375 689.877929688 36.9462890625 661.12890625 65.6953125 c 2
 74.990234375 651.834960938 l 2
701.87890625 449.475585938 m 0
 708.045898438 456.327148438 725.536132812 445.241210938 713.224609375 432.565429688 c 0
 676.466796875 407.880859375 637.940429688 419.470703125 619.474609375 425.026367188 c 0
 594.462890625 432.553710938 518.220703125 455.4921875 443.416992188 522.844726562 c 0
 411.145507812 551.904296875 308.311523438 650.083007812 344.415039062 690.706054688 c 0
 353.383789062 700.668945312 368.44921875 687.096679688 359.635742188 677.181640625 c 0
 346.951171875 662.908203125 383.779296875 603.942382812 457.041992188 537.977539062 c 0
 487.127929688 510.88671875 525.649414062 476.203125 634.869140625 441.615234375 c 0
 663.8828125 432.505859375 689.453125 441.12890625 701.87890625 449.475585938 c 0
621.638671875 360.365234375 m 0
 628.637695312 373.59375 634.54296875 399.924804688 622.451171875 427.827148438 c 0
 576.638671875 532.833984375 538.1171875 567.518554688 508.028320312 594.608398438 c 0
 434.767578125 660.573242188 372.276367188 691.037109375 359.40625 676.928710938 c 0
 350.466796875 667.127929688 335.39453125 680.692382812 344.364257812 690.655273438 c 0
 380.990234375 730.806640625 489.381835938 638.797851562 521.65234375 609.740234375 c 0
 596.458007812 542.385742188 627.239257812 468.959960938 637.33984375 444.870117188 c 0
 644.793945312 427.08984375 660.3515625 389.982421875 639.641601562 350.846679688 c 0
 628.322265625 337.276367188 615.46875 353.514648438 621.638671875 360.365234375 c 0
436.875976562 514.697265625 m 1024
EndSplineSet
EndChar

StartChar: f
Encoding: 102 102 44
Width: 824
Flags: W
LayerCount: 2
Fore
SplineSet
430.87109375 714.715820312 m 2
 410.884765625 755.885742188 356.692382812 733.24609375 386.990234375 670.834960938 c 2
 681.12890625 55.6953125 l 2
 697.965820312 21.0126953125 749.443359375 49.244140625 725.009765625 99.576171875 c 2
 430.87109375 714.715820312 l 2
126.87109375 62.2841796875 m 2
 425.009765625 676.423828125 l 2
 449.443359375 726.755859375 397.943359375 754.940429688 381.12890625 720.3046875 c 6
 82.990234375 106.165039062 l 6
 52.6923828125 43.75390625 106.884765625 21.1142578125 126.87109375 62.2841796875 c 2
EndSplineSet
EndChar

StartChar: g
Encoding: 103 103 45
Width: 653
Flags: W
HStem: 722.763 40.9082<250.694 407.579>
VStem: 115.522 40.9092<-158.209 -143.146 549.99 628.288> 501.842 40.9082<-158.209 -143.146 549.99 628.288>
LayerCount: 2
Fore
SplineSet
115.522460938 -143.146484375 m 6
 115.522460938 -169.923828125 156.431640625 -169.923828125 156.431640625 -143.146484375 c 6
 156.431640625 549.990234375 l 6
 156.431640625 645.30859375 233.834960938 722.762695312 329.13671875 722.762695312 c 4
 424.4375 722.762695312 501.841796875 645.30859375 501.841796875 549.990234375 c 6
 501.841796875 -143.146484375 l 6
 501.841796875 -169.923828125 542.75 -169.923828125 542.75 -143.146484375 c 6
 542.75 549.990234375 l 6
 542.75 667.874023438 447.036132812 763.670898438 329.13671875 763.670898438 c 4
 211.236328125 763.670898438 115.522460938 667.874023438 115.522460938 549.990234375 c 6
 115.522460938 -143.146484375 l 6
EndSplineSet
EndChar

StartChar: h
Encoding: 104 104 46
Width: 543
Flags: W
HStem: 427.264 40.9092<169.878 383.212> 722.695 40.9092<207.644 345.447>
VStem: 62.9316 40.9092<-180.981 -165.919 254.559 332.875> 108.342 40.9092<528.441 662.45> 403.841 40.9082<528.441 662.45> 449.251 40.9082<-180.981 -165.919 254.559 332.875>
LayerCount: 2
Fore
SplineSet
403.840820312 595.467773438 m 0
 403.840820312 525.197265625 346.758789062 468.172851562 276.545898438 468.172851562 c 0
 206.33203125 468.172851562 149.250976562 525.197265625 149.250976562 595.467773438 c 0
 149.250976562 665.671875 206.263671875 722.6953125 276.545898438 722.6953125 c 0
 346.827148438 722.6953125 403.840820312 665.671875 403.840820312 595.467773438 c 0
444.749023438 595.467773438 m 0
 444.749023438 688.260742188 369.393554688 763.604492188 276.545898438 763.604492188 c 0
 183.697265625 763.604492188 108.341796875 688.260742188 108.341796875 595.467773438 c 0
 108.341796875 502.606445312 183.76171875 427.263671875 276.545898438 427.263671875 c 0
 369.330078125 427.263671875 444.749023438 502.606445312 444.749023438 595.467773438 c 0
62.931640625 -165.918945312 m 2
 62.931640625 -192.6953125 103.840820312 -192.6953125 103.840820312 -165.918945312 c 2
 103.840820312 254.55859375 l 2
 103.840820312 349.940429688 181.163085938 427.263671875 276.545898438 427.263671875 c 0
 371.927734375 427.263671875 449.250976562 349.940429688 449.250976562 254.55859375 c 2
 449.250976562 -165.918945312 l 2
 449.250976562 -192.6953125 490.159179688 -192.6953125 490.159179688 -165.918945312 c 2
 490.159179688 254.55859375 l 2
 490.159179688 372.509765625 394.497070312 468.172851562 276.545898438 468.172851562 c 0
 158.59375 468.172851562 62.931640625 372.509765625 62.931640625 254.55859375 c 2
 62.931640625 -165.918945312 l 2
EndSplineSet
EndChar

StartChar: i
Encoding: 105 105 47
Width: 824
Flags: W
LayerCount: 2
Fore
SplineSet
425.879882812 315.907226562 m 6
 437.420898438 359.728515625 379.745117188 371.608398438 367.350585938 336.60546875 c 4
 267.890625 55.7099609375 267.890625 55.7099609375 267.890625 50.3603515625 c 4
 267.890625 15.84375 316.677734375 7.4990234375 328.189453125 40.01171875 c 6
 425.879882812 315.907226562 l 6
425.879882812 336.60546875 m 6
 412.329101562 374.875 353.786132812 354.217773438 367.350585938 315.907226562 c 6
 465.041015625 40.01171875 l 6
 478.591796875 1.7421875 537.134765625 22.3994140625 523.569335938 60.7099609375 c 6
 425.879882812 336.60546875 l 6
667.744140625 45.6953125 m 6
 696.462890625 16.9775390625 740.374023438 60.8271484375 711.625 89.576171875 c 6
 435.831054688 365.37109375 l 6
 407.11328125 394.088867188 363.201171875 350.239257812 391.950195312 321.490234375 c 6
 667.744140625 45.6953125 l 6
711.625 631.834960938 m 6
 740.342773438 660.552734375 696.493164062 704.46484375 667.744140625 675.715820312 c 6
 81.60546875 89.576171875 l 6
 52.8876953125 60.8583984375 96.7373046875 16.9462890625 125.486328125 45.6953125 c 6
 711.625 631.834960938 l 6
EndSplineSet
EndChar

StartChar: j
Encoding: 106 106 48
Width: 824
Flags: W
VStem: 388.581 62.0684<30.6321 50.3604 653.775 673.504>
LayerCount: 2
Fore
SplineSet
104.60546875 89.576171875 m 6
 75.8876953125 60.8583984375 119.737304688 16.9462890625 148.486328125 45.6953125 c 6
 424.280273438 321.490234375 l 6
 452.998046875 350.208007812 409.1484375 394.120117188 380.399414062 365.37109375 c 6
 104.60546875 89.576171875 l 6
450.649414062 326.256835938 m 4
 450.649414062 358.302734375 407.263671875 369.16015625 392.189453125 340.78515625 c 6
 247.119140625 67.7177734375 l 6
 228.108398438 31.9345703125 282.862304688 2.6923828125 301.970703125 38.6611328125 c 6
 447.041015625 311.728515625 l 6
 447.041015625 316.063476562 450.649414062 321.008789062 450.649414062 326.256835938 c 4
447.041015625 340.78515625 m 6
 427.956054688 376.708007812 373.154296875 347.557617188 392.189453125 311.728515625 c 6
 537.259765625 38.6611328125 l 6
 556.34375 2.7373046875 611.145507812 31.888671875 592.111328125 67.7177734375 c 6
 447.041015625 340.78515625 l 6
450.649414062 653.775390625 m 6
 450.649414062 694.40234375 388.581054688 694.40234375 388.581054688 653.775390625 c 6
 388.581054688 50.3603515625 l 6
 388.581054688 9.7333984375 450.649414062 9.7333984375 450.649414062 50.3603515625 c 6
 450.649414062 653.775390625 l 6
690.744140625 45.6953125 m 6
 719.462890625 16.9775390625 763.374023438 60.8271484375 734.625 89.576171875 c 6
 458.831054688 365.37109375 l 6
 430.11328125 394.088867188 386.201171875 350.239257812 414.950195312 321.490234375 c 6
 690.744140625 45.6953125 l 6
EndSplineSet
EndChar

StartChar: k
Encoding: 107 107 49
Width: 824
Flags: W
VStem: 400.581 62.0684<30.6321 50.3604 326.257 345.985>
LayerCount: 2
Fore
SplineSet
459.041015625 340.78515625 m 6
 439.956054688 376.708007812 385.154296875 347.557617188 404.189453125 311.728515625 c 6
 549.259765625 38.6611328125 l 6
 568.34375 2.7373046875 623.145507812 31.888671875 604.111328125 67.7177734375 c 6
 459.041015625 340.78515625 l 6
462.649414062 326.256835938 m 4
 462.649414062 358.302734375 419.263671875 369.16015625 404.189453125 340.78515625 c 6
 259.119140625 67.7177734375 l 6
 240.108398438 31.9345703125 294.862304688 2.6923828125 313.970703125 38.6611328125 c 6
 459.041015625 311.728515625 l 6
 459.041015625 316.063476562 462.649414062 321.008789062 462.649414062 326.256835938 c 4
462.649414062 326.256835938 m 6
 462.649414062 366.883789062 400.581054688 366.883789062 400.581054688 326.256835938 c 6
 400.581054688 50.3603515625 l 6
 400.581054688 9.7333984375 462.649414062 9.7333984375 462.649414062 50.3603515625 c 6
 462.649414062 326.256835938 l 6
116.60546875 89.576171875 m 6
 87.8876953125 60.8583984375 131.737304688 16.9462890625 160.486328125 45.6953125 c 6
 436.280273438 321.490234375 l 6
 464.998046875 350.208007812 421.1484375 394.120117188 392.399414062 365.37109375 c 6
 116.60546875 89.576171875 l 6
160.486328125 675.715820312 m 6
 131.767578125 704.43359375 87.8564453125 660.583984375 116.60546875 631.834960938 c 6
 702.744140625 45.6953125 l 6
 731.462890625 16.9775390625 775.374023438 60.8271484375 746.625 89.576171875 c 6
 160.486328125 675.715820312 l 6
EndSplineSet
EndChar

StartChar: l
Encoding: 108 108 50
Width: 824
Flags: W
VStem: 372.581 62.0684<20.6321 40.3604 316.257 335.985>
LayerCount: 2
Fore
SplineSet
434.649414062 316.256835938 m 4
 434.649414062 348.302734375 391.263671875 359.16015625 376.189453125 330.78515625 c 6
 231.119140625 57.7177734375 l 6
 212.108398438 21.9345703125 266.862304688 -7.3076171875 285.970703125 28.6611328125 c 6
 431.041015625 301.728515625 l 6
 431.041015625 306.063476562 434.649414062 311.008789062 434.649414062 316.256835938 c 4
431.041015625 330.78515625 m 6
 411.956054688 366.708007812 357.154296875 337.557617188 376.189453125 301.728515625 c 6
 521.259765625 28.6611328125 l 6
 540.34375 -7.2626953125 595.145507812 21.888671875 576.111328125 57.7177734375 c 6
 431.041015625 330.78515625 l 6
434.649414062 316.256835938 m 6
 434.649414062 356.883789062 372.581054688 356.883789062 372.581054688 316.256835938 c 6
 372.581054688 40.3603515625 l 6
 372.581054688 -0.2666015625 434.649414062 -0.2666015625 434.649414062 40.3603515625 c 6
 434.649414062 316.256835938 l 6
674.744140625 35.6953125 m 6
 703.462890625 6.9775390625 747.374023438 50.8271484375 718.625 79.576171875 c 6
 442.831054688 355.37109375 l 6
 414.11328125 384.088867188 370.201171875 340.239257812 398.950195312 311.490234375 c 6
 674.744140625 35.6953125 l 6
718.625 621.834960938 m 6
 747.342773438 650.552734375 703.493164062 694.46484375 674.744140625 665.715820312 c 6
 88.60546875 79.576171875 l 6
 59.8876953125 50.8583984375 103.737304688 6.9462890625 132.486328125 35.6953125 c 6
 718.625 621.834960938 l 6
EndSplineSet
EndChar

StartChar: m
Encoding: 109 109 51
Width: 842
Flags: W
HStem: 7.0791 35.7725<396.479 493.887> 198.024 34.4795<395.974 495.386> 320.011 35.3379<399.156 494.544>
VStem: 321.851 37.5<178.193 270.765> 509.351 38.793<271.876 305.925> 519.695 39.6553<66.3303 175.661>
LayerCount: 2
Fore
SplineSet
359.350585938 178.193359375 m 5xf8
 377.022460938 212.682617188 408.918945312 232.50390625 449.8671875 232.50390625 c 4
 516.247070312 232.50390625 559.350585938 188.97265625 559.350585938 122.58984375 c 4xf4
 559.350585938 56.216796875 516.247070312 7.0791015625 446.418945312 7.0791015625 c 4
 368.40234375 7.0791015625 321.850585938 65.2685546875 321.850585938 175.606445312 c 4
 321.850585938 287.682617188 363.229492188 355.348632812 448.57421875 355.348632812 c 4
 499.8671875 355.348632812 529.177734375 331.6484375 545.98828125 296.299804688 c 4
 547.711914062 293.299804688 548.143554688 290.713867188 548.143554688 288.127929688 c 4
 548.143554688 280.337890625 542.109375 274.337890625 535.211914062 271.751953125 c 4
 532.1953125 271.02734375 528.747070312 269.993164062 525.298828125 269.993164062 c 4
 518.833007812 269.993164062 512.798828125 272.579101562 509.350585938 279.923828125 c 4
 499.005859375 304.493164062 481.763671875 320.010742188 446.850585938 320.010742188 c 4
 414.954101562 320.010742188 390.384765625 303.200195312 376.161132812 270.00390625 c 4
 365.815429688 245.869140625 361.505859375 226.038085938 359.350585938 178.193359375 c 5xf8
446.418945312 198.024414062 m 4
 401.161132812 198.024414062 368.833007812 165.26171875 368.833007812 121.296875 c 4
 368.833007812 76.0380859375 401.591796875 42.8515625 445.125976562 42.8515625 c 4
 490.384765625 42.8515625 519.6953125 75.1796875 519.6953125 122.58984375 c 4
 519.6953125 168.283203125 490.384765625 198.024414062 446.418945312 198.024414062 c 4
724.6796875 269.801757812 m 6
 756.588867188 244.780273438 794.974609375 293.545898438 762.93359375 318.669921875 c 6
 320.651367188 665.484375 l 6
 288.743164062 690.505859375 250.357421875 641.741210938 282.3984375 616.616210938 c 6
 724.6796875 269.801757812 l 6
103.990234375 318.669921875 m 6
 71.9853515625 293.572265625 110.30078125 244.751953125 142.244140625 269.801757812 c 6
 452.588867188 513.16796875 l 6
 484.59375 538.265625 446.278320312 587.0859375 414.334960938 562.036132812 c 6
 103.990234375 318.669921875 l 6
EndSplineSet
EndChar

StartChar: n
Encoding: 110 110 52
Width: 842
Flags: W
HStem: 7.0791 35.7725<378.961 476.369> 198.024 34.4795<378.456 477.868> 320.011 35.3379<381.638 477.026>
VStem: 304.332 37.5<178.193 270.765> 491.832 38.793<271.876 305.925> 502.177 39.6553<66.3303 175.661>
LayerCount: 2
Fore
SplineSet
341.83203125 178.193359375 m 5xf8
 359.504882812 212.682617188 391.401367188 232.50390625 432.349609375 232.50390625 c 4
 498.728515625 232.50390625 541.83203125 188.97265625 541.83203125 122.58984375 c 4xf4
 541.83203125 56.216796875 498.728515625 7.0791015625 428.901367188 7.0791015625 c 4
 350.883789062 7.0791015625 304.33203125 65.2685546875 304.33203125 175.606445312 c 4
 304.33203125 287.682617188 345.711914062 355.348632812 431.056640625 355.348632812 c 4
 482.349609375 355.348632812 511.66015625 331.6484375 528.469726562 296.299804688 c 4
 530.193359375 293.299804688 530.625 290.713867188 530.625 288.127929688 c 4
 530.625 280.337890625 524.590820312 274.337890625 517.694335938 271.751953125 c 4
 514.676757812 271.02734375 511.228515625 269.993164062 507.780273438 269.993164062 c 4
 501.314453125 269.993164062 495.280273438 272.579101562 491.83203125 279.923828125 c 4
 481.487304688 304.493164062 464.24609375 320.010742188 429.33203125 320.010742188 c 4
 397.435546875 320.010742188 372.866210938 303.200195312 358.642578125 270.00390625 c 4
 348.297851562 245.869140625 343.987304688 226.038085938 341.83203125 178.193359375 c 5xf8
428.901367188 198.024414062 m 4
 383.642578125 198.024414062 351.314453125 165.26171875 351.314453125 121.296875 c 4
 351.314453125 76.0380859375 384.073242188 42.8515625 427.608398438 42.8515625 c 4
 472.866210938 42.8515625 502.176757812 75.1796875 502.176757812 122.58984375 c 4
 502.176757812 168.283203125 472.866210938 198.024414062 428.901367188 198.024414062 c 4
92.990234375 318.669921875 m 6
 60.9853515625 293.573242188 99.2998046875 244.752929688 131.244140625 269.801757812 c 6
 573.525390625 616.616210938 l 6
 605.530273438 641.712890625 567.216796875 690.534179688 535.272460938 665.484375 c 6
 92.990234375 318.669921875 l 6
713.6796875 269.801757812 m 6
 745.587890625 244.780273438 783.974609375 293.544921875 751.93359375 318.669921875 c 6
 441.588867188 562.036132812 l 6
 409.680664062 587.057617188 371.293945312 538.293945312 403.334960938 513.16796875 c 6
 713.6796875 269.801757812 l 6
EndSplineSet
EndChar

StartChar: o
Encoding: 111 111 53
Width: 842
Flags: W
HStem: 20.9795 21G<401.747 414.678> 320.545 38.3584<315.114 506.488>
LayerCount: 2
Fore
SplineSet
506.48828125 320.524414062 m 5
 332.350585938 320.544921875 l 6
 321.143554688 320.544921875 315.109375 328.73828125 315.109375 339.506835938 c 4
 315.109375 350.317382812 321.143554688 358.903320312 332.350585938 358.903320312 c 6
 531.057617188 358.903320312 l 6
 547.436523438 358.903320312 554.333007812 351.14453125 554.333007812 336.920898438 c 4
 554.333007812 321.403320312 548.729492188 314.9375 540.109375 303.299804688 c 4
 491.833007812 237.3515625 454.333007812 145.1171875 431.48828125 39.5068359375 c 4
 428.471679688 25.73828125 420.28125 20.9794921875 409.075195312 20.9794921875 c 4
 408.643554688 20.9794921875 408.212890625 20.9794921875 407.78125 20.9794921875 c 4
 395.712890625 21.4033203125 386.23046875 27.4453125 386.23046875 38.6484375 c 4
 386.23046875 40.4072265625 386.66015625 42.4755859375 387.091796875 44.234375 c 4
 409.07421875 142.510742188 452.609375 242.079101562 506.48828125 320.524414062 c 5
722.6796875 279.801757812 m 6
 754.588867188 254.780273438 792.974609375 303.545898438 760.93359375 328.669921875 c 6
 318.651367188 675.484375 l 6
 286.743164062 700.505859375 248.357421875 651.741210938 280.3984375 626.616210938 c 6
 722.6796875 279.801757812 l 6
101.990234375 328.669921875 m 6
 69.9853515625 303.572265625 108.30078125 254.751953125 140.244140625 279.801757812 c 6
 450.588867188 523.16796875 l 6
 482.59375 548.265625 444.278320312 597.0859375 412.334960938 572.036132812 c 6
 101.990234375 328.669921875 l 6
EndSplineSet
EndChar

StartChar: p
Encoding: 112 112 54
Width: 842
Flags: W
HStem: 360.545 38.3584<311.595 502.97>
LayerCount: 2
Fore
SplineSet
502.969726562 360.524414062 m 5
 328.83203125 360.544921875 l 6
 317.625 360.544921875 311.590820312 368.73828125 311.590820312 379.506835938 c 4
 311.590820312 390.317382812 317.625 398.903320312 328.83203125 398.903320312 c 6
 527.5390625 398.903320312 l 6
 543.918945312 398.903320312 550.815429688 391.14453125 550.815429688 376.920898438 c 4
 550.815429688 361.403320312 545.211914062 354.9375 536.590820312 343.299804688 c 4
 488.315429688 277.3515625 450.815429688 185.1171875 427.970703125 79.5068359375 c 4
 424.953125 65.73828125 416.763671875 60.9794921875 405.556640625 60.9794921875 c 4
 405.125 60.9794921875 404.6953125 60.9794921875 404.263671875 60.9794921875 c 4
 392.194335938 61.4033203125 382.711914062 67.4453125 382.711914062 78.6484375 c 4
 382.711914062 80.4072265625 383.142578125 82.4755859375 383.573242188 84.234375 c 4
 405.556640625 182.510742188 449.090820312 282.079101562 502.969726562 360.524414062 c 5
104.990234375 368.669921875 m 6
 72.9853515625 343.573242188 111.299804688 294.752929688 143.244140625 319.801757812 c 6
 585.525390625 666.616210938 l 6
 617.530273438 691.712890625 579.216796875 740.534179688 547.272460938 715.484375 c 6
 104.990234375 368.669921875 l 6
725.6796875 319.801757812 m 6
 757.587890625 294.780273438 795.974609375 343.544921875 763.93359375 368.669921875 c 6
 453.588867188 612.036132812 l 6
 421.680664062 637.057617188 383.293945312 588.293945312 415.334960938 563.16796875 c 6
 725.6796875 319.801757812 l 6
EndSplineSet
EndChar

StartChar: q
Encoding: 113 113 55
Width: 824
Flags: W
LayerCount: 2
Fore
SplineSet
688.12890625 105.6953125 m 6
 716.84765625 76.9775390625 760.758789062 120.827148438 732.009765625 149.576171875 c 6
 456.215820312 425.37109375 l 6
 427.498046875 454.088867188 383.5859375 410.239257812 412.334960938 381.490234375 c 6
 688.12890625 105.6953125 l 6
732.009765625 691.834960938 m 6
 760.727539062 720.552734375 716.877929688 764.46484375 688.12890625 735.715820312 c 6
 101.990234375 149.576171875 l 6
 73.2724609375 120.858398438 117.122070312 76.9462890625 145.87109375 105.6953125 c 6
 732.009765625 691.834960938 l 6
EndSplineSet
EndChar

StartChar: r
Encoding: 114 114 56
Width: 824
Flags: W
HStem: 44.877 62.0693<244.099 263.827 574.173 593.901>
LayerCount: 2
Fore
SplineSet
263.827148438 106.946289062 m 6
 223.200195312 106.946289062 223.200195312 44.876953125 263.827148438 44.876953125 c 6
 574.172851562 44.876953125 l 6
 614.799804688 44.876953125 614.799804688 106.946289062 574.172851562 106.946289062 c 6
 263.827148438 106.946289062 l 6
690.12890625 105.6953125 m 6
 718.84765625 76.9775390625 762.758789062 120.827148438 734.009765625 149.576171875 c 6
 458.215820312 425.37109375 l 6
 429.498046875 454.088867188 385.5859375 410.239257812 414.334960938 381.490234375 c 6
 690.12890625 105.6953125 l 6
734.009765625 691.834960938 m 6
 762.727539062 720.552734375 718.877929688 764.46484375 690.12890625 735.715820312 c 6
 103.990234375 149.576171875 l 6
 75.2724609375 120.858398438 119.122070312 76.9462890625 147.87109375 105.6953125 c 6
 734.009765625 691.834960938 l 6
EndSplineSet
EndChar

StartChar: s
Encoding: 115 115 57
Width: 531
Flags: W
VStem: 380.966 62.0684<47.9075 67.6357 653.775 673.504>
LayerCount: 2
Fore
SplineSet
380.965820312 67.6357421875 m 6
 380.965820312 27.0087890625 443.034179688 27.0087890625 443.034179688 67.6357421875 c 6
 443.034179688 653.775390625 l 6
 443.034179688 694.40234375 380.965820312 694.40234375 380.965820312 653.775390625 c 6
 380.965820312 67.6357421875 l 6
101.655273438 546.912109375 m 4
 69.5859375 546.912109375 58.75 503.4765625 87.1650390625 488.431640625 c 6
 380.235351562 333.259765625 l 6
 416.044921875 314.298828125 445.209960938 369.09375 409.21484375 388.151367188 c 6
 116.145507812 543.32421875 l 6
 111.819335938 543.32421875 106.887695312 546.912109375 101.655273438 546.912109375 c 4
EndSplineSet
EndChar

StartChar: t
Encoding: 116 116 58
Width: 841
Flags: W
VStem: 288.966 62.0684<47.9075 67.6357 653.775 673.504>
LayerCount: 2
Fore
SplineSet
288.965820312 67.6357421875 m 6
 288.965820312 27.0087890625 351.034179688 27.0087890625 351.034179688 67.6357421875 c 6
 351.034179688 653.775390625 l 6
 351.034179688 694.40234375 288.965820312 694.40234375 288.965820312 653.775390625 c 6
 288.965820312 67.6357421875 l 6
644.834960938 488.431640625 m 6
 680.784179688 507.465820312 651.7109375 562.30859375 615.854492188 543.32421875 c 6
 322.78515625 388.151367188 l 6
 286.834960938 369.1171875 315.909179688 314.274414062 351.764648438 333.259765625 c 6
 644.834960938 488.431640625 l 6
EndSplineSet
EndChar

StartChar: u
Encoding: 117 117 59
Width: 531
Flags: W
VStem: 241.966 62.0684<30.6321 50.3604 671.051 690.779>
LayerCount: 2
Fore
SplineSet
304.034179688 671.05078125 m 6
 304.034179688 711.677734375 241.965820312 711.677734375 241.965820312 671.05078125 c 6
 241.965820312 50.3603515625 l 6
 241.965820312 9.7333984375 304.034179688 9.7333984375 304.034179688 50.3603515625 c 6
 304.034179688 671.05078125 l 6
EndSplineSet
EndChar

StartChar: v
Encoding: 118 118 60
Width: 911
Flags: W
HStem: 321.301 30.0693<551.995 559.416> 387.896 30.0693<384.758 392.179>
LayerCount: 2
Fore
SplineSet
751.418945312 455.130859375 m 6
 805.43359375 484.1171875 766.204101562 570.630859375 706.125976562 548.912109375 c 6
 611.236328125 514.774414062 l 6
 592.134765625 507.90234375 602.612304688 478.68359375 621.732421875 485.5625 c 4
 720.3203125 521.03125 720.3203125 521.03125 724.108398438 521.03125 c 4
 746.430664062 521.03125 752.189453125 490.4140625 740.776367188 484.2890625 c 4
 738.776367188 483.391601562 68.109375 238.397460938 68.109375 238.397460938 c 6
 49.041015625 231.426757812 59.6708984375 202.263671875 78.7529296875 209.23828125 c 6
 751.418945312 455.130859375 l 6
83 530 m 6
 61.060546875 536.051757812 54.8759765625 507.33203125 72.2109375 500.895507812 c 4
 376.568359375 387.895507812 376.568359375 387.895507812 379.36328125 387.895507812 c 4
 396.493164062 387.895507812 400.809570312 412.004882812 384.7578125 417.96484375 c 6
 83 530 l 6
861.173828125 209.265625 m 6
 883.114257812 203.213867188 889.298828125 231.93359375 871.962890625 238.370117188 c 4
 567.606445312 351.370117188 567.606445312 351.370117188 564.810546875 351.370117188 c 4
 547.681640625 351.370117188 543.365234375 327.260742188 559.416015625 321.30078125 c 6
 861.173828125 209.265625 l 6
EndSplineSet
EndChar

StartChar: w
Encoding: 119 119 61
Width: 840
Flags: W
HStem: 329.671 62.0693<89.927 109.655 730.345 750.073>
LayerCount: 2
Fore
SplineSet
730.344726562 329.670898438 m 6
 770.971679688 329.670898438 770.971679688 391.740234375 730.344726562 391.740234375 c 6
 109.655273438 391.740234375 l 6
 69.0283203125 391.740234375 69.0283203125 329.670898438 109.655273438 329.670898438 c 6
 730.344726562 329.670898438 l 6
EndSplineSet
EndChar

StartChar: x
Encoding: 120 120 62
Width: 824
Flags: W
LayerCount: 2
Fore
SplineSet
138.87109375 675.715820312 m 6
 110.15234375 704.43359375 66.2412109375 660.583984375 94.990234375 631.834960938 c 6
 681.12890625 45.6953125 l 6
 709.84765625 16.9775390625 753.758789062 60.8271484375 725.009765625 89.576171875 c 6
 138.87109375 675.715820312 l 6
EndSplineSet
EndChar

StartChar: y
Encoding: 121 121 63
Width: 824
Flags: W
LayerCount: 2
Fore
SplineSet
745.009765625 631.834960938 m 6
 773.727539062 660.552734375 729.877929688 704.46484375 701.12890625 675.715820312 c 6
 114.990234375 89.576171875 l 6
 86.2724609375 60.8583984375 130.122070312 16.9462890625 158.87109375 45.6953125 c 6
 745.009765625 631.834960938 l 6
EndSplineSet
EndChar

StartChar: z
Encoding: 122 122 64
Width: 611
Flags: W
VStem: 289.091 40.0781<-166.506 -140.18>
LayerCount: 2
Fore
SplineSet
591.341796875 743.216796875 m 4
 591.341796875 766.575195312 557.857421875 771.366210938 551.263671875 749.00390625 c 4
 289.090820312 -140.1796875 289.090820312 -140.1796875 289.090820312 -143.146484375 c 4
 289.090820312 -166.505859375 322.575195312 -171.296875 329.168945312 -148.93359375 c 6
 329.168945312 -148.93359375 590.509765625 737.4296875 591.341796875 743.216796875 c 4
67.8271484375 749.00390625 m 6
 61.63671875 769.998046875 26.9775390625 770.3515625 28.5810546875 737.4296875 c 6
 289.922851562 -148.93359375 l 6
 296.112304688 -169.928710938 330.771484375 -170.28125 329.168945312 -137.359375 c 6
 67.8271484375 749.00390625 l 6
EndSplineSet
EndChar

StartChar: braceleft
Encoding: 123 123 65
Width: 611
Flags: W
HStem: 415.944 40.9092<33.1418 48.2041 570.887 585.949>
VStem: 289.091 40.0781<-166.506 -140.18>
LayerCount: 2
Fore
SplineSet
48.2041015625 456.853515625 m 6
 21.4267578125 456.853515625 21.4267578125 415.944335938 48.2041015625 415.944335938 c 6
 570.88671875 415.944335938 l 6
 597.6640625 415.944335938 597.6640625 456.853515625 570.88671875 456.853515625 c 6
 48.2041015625 456.853515625 l 6
591.341796875 743.216796875 m 4
 591.341796875 766.575195312 557.857421875 771.366210938 551.263671875 749.00390625 c 4
 289.090820312 -140.1796875 289.090820312 -140.1796875 289.090820312 -143.146484375 c 4
 289.090820312 -166.505859375 322.575195312 -171.296875 329.168945312 -148.93359375 c 6
 329.168945312 -148.93359375 590.509765625 737.4296875 591.341796875 743.216796875 c 4
67.8271484375 749.00390625 m 6
 61.63671875 769.998046875 26.9775390625 770.3515625 28.5810546875 737.4296875 c 6
 289.922851562 -148.93359375 l 6
 296.112304688 -169.928710938 330.771484375 -170.28125 329.168945312 -137.359375 c 6
 67.8271484375 749.00390625 l 6
EndSplineSet
EndChar

StartChar: bar
Encoding: 124 124 66
Width: 824
Flags: W
HStem: 6.60156 62.0684<317.075 522.925> 592.741 62.0684<317.075 522.925>
VStem: 95.8955 62.0693<227.781 433.631> 682.035 62.0693<227.781 433.631>
LayerCount: 2
Fore
SplineSet
682.03515625 330.706054688 m 4
 682.03515625 186.095703125 564.609375 68.669921875 420 68.669921875 c 4
 275.390625 68.669921875 157.96484375 186.095703125 157.96484375 330.706054688 c 4
 157.96484375 475.315429688 275.390625 592.741210938 420 592.741210938 c 4
 564.609375 592.741210938 682.03515625 475.315429688 682.03515625 330.706054688 c 4
744.104492188 330.706054688 m 4
 744.104492188 509.57421875 598.868164062 654.809570312 420 654.809570312 c 4
 241.131835938 654.809570312 95.8955078125 509.57421875 95.8955078125 330.706054688 c 4
 95.8955078125 151.837890625 241.131835938 6.6015625 420 6.6015625 c 4
 598.868164062 6.6015625 744.104492188 151.837890625 744.104492188 330.706054688 c 4
EndSplineSet
EndChar

StartChar: Igrave
Encoding: 204 204 67
Width: 611
Flags: W
HStem: 385.75 237.5<241.733 377.938>
VStem: 190.75 237.5<436.409 572.615> 289.091 40.0781<-166.506 -140.18>
LayerCount: 2
Fore
SplineSet
309.75 623.25 m 4xc0
 342.75 623.25 370.75 611.666015625 393.75 588.5 c 4
 416.75 565.333984375 428.25 537.416015625 428.25 504.75 c 4
 428.25 471.75 416.75 443.666015625 393.75 420.5 c 4
 370.75 397.333984375 342.75 385.75 309.75 385.75 c 260
 276.75 385.75 248.666015625 397.333984375 225.5 420.5 c 4
 202.333984375 443.666015625 190.75 471.75 190.75 504.75 c 4
 190.75 537.416015625 202.416015625 565.333984375 225.75 588.5 c 4
 249.083984375 611.666015625 277.083984375 623.25 309.75 623.25 c 4xc0
591.341796875 743.216796875 m 0
 591.341796875 766.575195312 557.857421875 771.366210938 551.263671875 749.00390625 c 0
 289.090820312 -140.1796875 289.090820312 -140.1796875 289.090820312 -143.146484375 c 0
 289.090820312 -166.505859375 322.575195312 -171.296875 329.168945312 -148.93359375 c 2xa0
 329.168945312 -148.93359375 590.509765625 737.4296875 591.341796875 743.216796875 c 0
67.8271484375 749.00390625 m 2
 61.63671875 769.998046875 26.9775390625 770.3515625 28.5810546875 737.4296875 c 2
 289.922851562 -148.93359375 l 2
 296.112304688 -169.928710938 330.771484375 -170.28125 329.168945312 -137.359375 c 2
 67.8271484375 749.00390625 l 2
EndSplineSet
EndChar

StartChar: Iacute
Encoding: 205 205 68
Width: 611
Flags: W
HStem: 155.75 237.5<241.733 377.938>
VStem: 190.75 237.5<206.409 342.615>
LayerCount: 2
Fore
SplineSet
309.75 393.25 m 4
 342.75 393.25 370.75 381.666015625 393.75 358.5 c 4
 416.75 335.333984375 428.25 307.416015625 428.25 274.75 c 4
 428.25 241.75 416.75 213.666015625 393.75 190.5 c 4
 370.75 167.333984375 342.75 155.75 309.75 155.75 c 260
 276.75 155.75 248.666015625 167.333984375 225.5 190.5 c 4
 202.333984375 213.666015625 190.75 241.75 190.75 274.75 c 4
 190.75 307.416015625 202.416015625 335.333984375 225.75 358.5 c 4
 249.083984375 381.666015625 277.083984375 393.25 309.75 393.25 c 4
EndSplineSet
EndChar

StartChar: Icircumflex
Encoding: 206 206 69
Width: 611
Flags: HW
HStem: 155.75 237.5<243.733 379.938> 722.763 40.9082<230.694 387.579>
VStem: 95.5225 40.9092<-158.209 -143.146 549.99 628.288> 192.75 237.5<206.409 342.615> 481.842 40.9082<-158.209 -143.146 549.99 628.288>
LayerCount: 2
Fore
SplineSet
95.5224609375 -143.146484375 m 2
 95.5224609375 -169.923828125 136.431640625 -169.923828125 136.431640625 -143.146484375 c 2
 136.431640625 549.990234375 l 2
 136.431640625 645.30859375 213.834960938 722.762695312 309.13671875 722.762695312 c 0
 404.4375 722.762695312 481.841796875 645.30859375 481.841796875 549.990234375 c 2
 481.841796875 -143.146484375 l 2
 481.841796875 -169.923828125 522.75 -169.923828125 522.75 -143.146484375 c 2
 522.75 549.990234375 l 2
 522.75 667.874023438 427.036132812 763.670898438 309.13671875 763.670898438 c 0
 191.236328125 763.670898438 95.5224609375 667.874023438 95.5224609375 549.990234375 c 2
 95.5224609375 -143.146484375 l 2
311.75 393.25 m 4
 344.75 393.25 372.75 381.666015625 395.75 358.5 c 4
 418.75 335.333984375 430.25 307.416015625 430.25 274.75 c 4
 430.25 241.75 418.75 213.666015625 395.75 190.5 c 4
 372.75 167.333984375 344.75 155.75 311.75 155.75 c 260
 278.75 155.75 250.666015625 167.333984375 227.5 190.5 c 4
 204.333984375 213.666015625 192.75 241.75 192.75 274.75 c 4
 192.75 307.416015625 204.416015625 335.333984375 227.75 358.5 c 4
 251.083984375 381.666015625 279.083984375 393.25 311.75 393.25 c 4
EndSplineSet
EndChar

StartChar: Idieresis
Encoding: 207 207 70
Width: 694
Flags: W
HStem: 640.379 53.3164<293.068 429.241>
LayerCount: 2
Fore
SplineSet
358.920898438 221.536132812 m 5
 57.998046875 441.810546875 242.095703125 640.984375 365.102539062 640.37890625 c 4
 478.456054688 639.821289062 639.491210938 439.547851562 358.920898438 221.536132812 c 5
314 185 m 5
 -143.509765625 -123.056640625 203.453125 46.64453125 357.115234375 154.26171875 c 5
 428.873046875 103.666015625 600.9140625 -12.45703125 600.9140625 37.435546875 c 4
 600.9140625 60.580078125 528.044921875 101.91015625 402 189 c 5
 741.71875 458.956054688 510.912109375 694.939453125 364.166015625 693.6953125 c 4
 190.455078125 692.221679688 -33.7880859375 433.14453125 314 185 c 5
EndSplineSet
EndChar

StartChar: Eth
Encoding: 208 208 71
Width: 694
Flags: W
HStem: 393.25 142.5<309.908 409.401> 640.379 53.3164<293.068 429.241>
VStem: 288.25 142.5<414.753 514.247>
LayerCount: 2
Fore
SplineSet
359.650390625 535.75 m 4
 379.450195312 535.75 396.25 528.799804688 410.049804688 514.900390625 c 4
 423.849609375 501 430.75 484.25 430.75 464.650390625 c 4
 430.75 444.849609375 423.849609375 428 410.049804688 414.099609375 c 4
 396.25 400.200195312 379.450195312 393.25 359.650390625 393.25 c 260
 339.849609375 393.25 323 400.200195312 309.099609375 414.099609375 c 4
 295.200195312 428 288.25 444.849609375 288.25 464.650390625 c 4
 288.25 484.25 295.25 501 309.25 514.900390625 c 4
 323.25 528.799804688 340.05078125 535.75 359.650390625 535.75 c 4
358.920898438 221.536132812 m 1
 57.998046875 441.810546875 242.095703125 640.984375 365.102539062 640.37890625 c 0
 478.456054688 639.821289062 639.491210938 439.547851562 358.920898438 221.536132812 c 1
314 185 m 1
 -143.509765625 -123.056640625 203.453125 46.64453125 357.115234375 154.26171875 c 1
 428.873046875 103.666015625 600.9140625 -12.45703125 600.9140625 37.435546875 c 0
 600.9140625 60.580078125 528.044921875 101.91015625 402 189 c 1
 741.71875 458.956054688 510.912109375 694.939453125 364.166015625 693.6953125 c 0
 190.455078125 692.221679688 -33.7880859375 433.14453125 314 185 c 1
EndSplineSet
EndChar

StartChar: Ntilde
Encoding: 209 209 72
Width: 956
Flags: W
HStem: 365.15 15.2695<30.0828 63.0003 357.669 390.587 733.683 734.083 936.261 936.661> 515.797 15.2705<38.765 39.165 241.343 241.743 582.182 612.617 909.768 940.203>
LayerCount: 2
Fore
SplineSet
377.043945312 481 m 0
 386.048828125 481 387.688476562 494.016601562 378.9921875 496.26953125 c 0
 262.546875 526.439453125 245.08984375 531.067382812 243.692382812 531.067382812 c 0
 234.6875 531.067382812 233.047851562 518.049804688 241.743164062 515.796875 c 2
 241.743164062 515.796875 375.094726562 481.247070312 377.043945312 481 c 0
598.381835938 415.217773438 m 0
 589.376953125 415.217773438 587.737304688 402.200195312 596.43359375 399.947265625 c 0
 712.87890625 369.77734375 730.336914062 365.150390625 731.733398438 365.150390625 c 0
 740.73828125 365.150390625 742.377929688 378.166992188 733.682617188 380.419921875 c 2
 733.682617188 380.419921875 600.331054688 414.970703125 598.381835938 415.217773438 c 0
273.873046875 455.212890625 m 0
 282.877929688 455.212890625 284.517578125 468.229492188 275.823242188 470.483398438 c 0
 42.109375 531.067382812 42.109375 531.067382812 41.1142578125 531.067382812 c 0
 32.1103515625 531.067382812 30.4697265625 518.05078125 39.1650390625 515.796875 c 2
 39.1650390625 515.796875 271.923828125 455.4609375 273.873046875 455.212890625 c 0
701.552734375 441.00390625 m 0
 692.547851562 441.00390625 690.908203125 427.98828125 699.602539062 425.734375 c 0
 933.31640625 365.150390625 933.31640625 365.150390625 934.311523438 365.150390625 c 0
 943.315429688 365.150390625 944.956054688 378.166015625 936.260742188 380.419921875 c 2
 936.260742188 380.419921875 703.502929688 440.756835938 701.552734375 441.00390625 c 0
608.663085938 511.9296875 m 2
 615.625 511.9296875 618.310546875 527.489257812 604.787109375 526.958007812 c 2
 35.8212890625 380.422851562 l 2
 27.5830078125 378.30078125 27.46484375 364.9140625 39.697265625 365.39453125 c 2
 608.663085938 511.9296875 l 2
936.249023438 511.9296875 m 2
 943.2109375 511.9296875 945.897460938 527.489257812 932.373046875 526.958007812 c 2
 363.408203125 380.422851562 l 2
 355.168945312 378.30078125 355.05078125 364.9140625 367.284179688 365.39453125 c 2
 936.249023438 511.9296875 l 2
EndSplineSet
EndChar

StartChar: Ograve
Encoding: 210 210 73
Width: 824
Flags: W
LayerCount: 2
Fore
SplineSet
123.990234375 149.576171875 m 6
 95.2724609375 120.858398438 139.122070312 76.9462890625 167.87109375 105.6953125 c 6
 443.665039062 381.490234375 l 6
 472.3828125 410.208007812 428.533203125 454.120117188 399.784179688 425.37109375 c 6
 123.990234375 149.576171875 l 6
167.87109375 735.715820312 m 6
 139.15234375 764.43359375 95.2412109375 720.583984375 123.990234375 691.834960938 c 6
 710.12890625 105.6953125 l 6
 738.84765625 76.9775390625 782.758789062 120.827148438 754.009765625 149.576171875 c 6
 167.87109375 735.715820312 l 6
EndSplineSet
EndChar

StartChar: Oacute
Encoding: 211 211 74
Width: 824
Flags: W
HStem: 44.877 62.0693<263.099 282.827 593.173 612.901>
LayerCount: 2
Fore
SplineSet
593.172851562 44.876953125 m 6
 633.799804688 44.876953125 633.799804688 106.946289062 593.172851562 106.946289062 c 6
 282.827148438 106.946289062 l 6
 242.200195312 106.946289062 242.200195312 44.876953125 282.827148438 44.876953125 c 6
 593.172851562 44.876953125 l 6
122.990234375 149.576171875 m 6
 94.2724609375 120.858398438 138.122070312 76.9462890625 166.87109375 105.6953125 c 6
 442.665039062 381.490234375 l 6
 471.3828125 410.208007812 427.533203125 454.120117188 398.784179688 425.37109375 c 6
 122.990234375 149.576171875 l 6
166.87109375 735.715820312 m 6
 138.15234375 764.43359375 94.2412109375 720.583984375 122.990234375 691.834960938 c 6
 709.12890625 105.6953125 l 6
 737.84765625 76.9775390625 781.758789062 120.827148438 753.009765625 149.576171875 c 6
 166.87109375 735.715820312 l 6
EndSplineSet
EndChar

StartChar: Ocircumflex
Encoding: 212 212 75
Width: 991
Flags: W
HStem: 23.6445 758.617<8.62109 991.379>
LayerCount: 2
Fore
SplineSet
8.62109375 782.26171875 m 5
 991.37890625 782.26171875 l 5
 991.37890625 23.64453125 l 5
 8.62109375 23.64453125 l 5
 8.62109375 782.26171875 l 5
EndSplineSet
EndChar

StartChar: Otilde
Encoding: 213 213 76
Width: 911
Flags: W
HStem: 227.301 30.0967<861.891 869.961> 340.301 30.0693<370.584 378.005> 406 30.0693<539.032 546.453>
LayerCount: 2
Fore
SplineSet
189.223632812 503.2890625 m 4
 175.234375 510.795898438 187.833007812 547.935546875 213.333984375 538.716796875 c 4
 310.80078125 503.651367188 310.80078125 503.651367188 313.515625 503.651367188 c 4
 330.731445312 503.651367188 334.952148438 527.950195312 318.763671875 533.774414062 c 4
 215.108398438 571.065429688 215.108398438 571.065429688 205.891601562 571.065429688 c 4
 152.471679688 571.065429688 132.795898438 498.701171875 178.581054688 474.130859375 c 5
 171.997070312 477.083007812 850.94140625 227.30078125 856.568359375 227.30078125 c 4
 873.740234375 227.30078125 878.009765625 251.504882812 861.890625 257.397460938 c 6
 861.890625 257.397460938 191.223632812 502.391601562 189.223632812 503.2890625 c 4
859 519 m 4
 878.03515625 526.067382812 867.256835938 555.17578125 848.2109375 548.104492188 c 6
 546.453125 436.069335938 l 6
 530.40234375 430.109375 534.71875 406 551.84765625 406 c 4
 554.643554688 406 554.643554688 406 859 519 c 4
58.037109375 257.370117188 m 4
 39.001953125 250.302734375 49.7802734375 221.194335938 68.826171875 228.265625 c 6
 370.583984375 340.30078125 l 6
 386.634765625 346.260742188 382.318359375 370.370117188 365.189453125 370.370117188 c 4
 362.393554688 370.370117188 362.393554688 370.370117188 58.037109375 257.370117188 c 4
EndSplineSet
EndChar

StartChar: Odieresis
Encoding: 214 214 77
Width: 824
Flags: W
LayerCount: 2
Fore
SplineSet
430.87109375 714.715820312 m 6
 725.009765625 99.576171875 l 6
 749.443359375 49.244140625 697.965820312 21.0126953125 681.12890625 55.6953125 c 2
 386.990234375 670.834960938 l 2
 356.692382812 733.24609375 410.884765625 755.885742188 430.87109375 714.715820312 c 6
126.87109375 62.2841796875 m 2
 106.884765625 21.1142578125 52.6923828125 43.75390625 82.990234375 106.165039062 c 2
 381.12890625 720.3046875 l 2
 397.943359375 754.940429688 449.443359375 726.755859375 425.009765625 676.423828125 c 2
 126.87109375 62.2841796875 l 2
EndSplineSet
EndChar

StartChar: multiply
Encoding: 215 215 78
Width: 483
Flags: W
VStem: 102.375 69.75<171.5 340.503 437.592 650>
LayerCount: 2
Fore
SplineSet
291 343.25 m 4
 307.75 326.25 324.25 307.875 340.5 288.125 c 4
 356.75 268.375 372.125 248.375 386.625 228.125 c 4
 401.125 207.875 413.375 189 423.375 171.5 c 5
 341.625 171.5 l 5
 331.125 189 319 206.875 305.25 225.125 c 4
 291.5 243.375 277.125 260.875 262.125 277.625 c 4
 247.125 294.375 233.041992188 311.162109375 216.375 323.75 c 4
 201.125976562 335.266601562 180.7265625 358.134765625 170.625 329 c 5
 172.125 171.5 l 5
 102.375 171.5 l 5
 101.625 650 l 5
 174.375 650.75 l 5
 172.875 470 l 5
 169.833984375 477.885742188 192.059570312 416.9296875 211.875 437.75 c 4
 226.01171875 452.603515625 240.625 467 254.625 482 c 4
 268.625 497 281.875 511.375 294.375 525.125 c 4
 306.875 538.875 317.625 551 326.625 561.5 c 5
 327.052734375 561.072265625 371.709960938 521.177734375 370.875 520.25 c 4
 357.375 505.25 343.375 490.125 328.875 474.875 c 4
 314.375 459.625 299.75 444.375 285 429.125 c 4
 284.401367188 428.505859375 248.982421875 385.89453125 291 343.25 c 4
EndSplineSet
EndChar

StartChar: Oslash
Encoding: 216 216 79
Width: 965
Flags: W
HStem: 175.146 50.5273<444.26 568.47> 177.603 44.8447<446.572 491.363 692.245 851.126> 430.26 44.8447<692.316 857.996>
VStem: 49.7686 63.835<175.763 313.897 392.784 568.897> 368.258 63.8359<237.16 306.396> 622.336 69.5801<225.211 418.198 455.964 599.792> 892.428 72.5723<261.158 396.463>
LayerCount: 2
Fore
SplineSet
691.916015625 455.963867188 m 1x7e
 700.395507812 459.973632812 713.239257812 464.166992188 730.447265625 468.541992188 c 0
 747.65625 472.916015625 767.481445312 475.104492188 789.927734375 475.104492188 c 0
 817.859375 475.104492188 842.673828125 471.458007812 864.37109375 464.166992188 c 0
 886.067382812 456.875 904.3984375 446.666992188 919.361328125 433.541992188 c 0
 934.326171875 420.416015625 945.672851562 404.739257812 953.403320312 386.509765625 c 0
 961.134765625 368.28125 965 348.229492188 965 326.353515625 c 0
 965 303.384765625 960.38671875 282.694335938 951.159179688 264.283203125 c 0
 941.932617188 245.87109375 928.838867188 230.28515625 911.879882812 217.525390625 c 0
 894.920898438 204.764648438 874.471679688 194.920898438 850.530273438 187.993164062 c 0
 826.587890625 181.06640625 799.654296875 177.602539062 769.7265625 177.602539062 c 0
 737.306640625 177.602539062 708.625 179.244140625 683.686523438 182.524414062 c 0
 658.747070312 185.805664062 638.296875 189.086914062 622.3359375 192.368164062 c 1
 622.3359375 599.791992188 l 1
 692.239257812 601.556640625 l 1
 691.916015625 455.963867188 l 1x7e
691.916015625 228.462890625 m 1
 698.899414062 227.00390625 708.75 225.63671875 721.469726562 224.361328125 c 0
 734.188476562 223.084960938 750.025390625 222.447265625 768.978515625 222.447265625 c 0
 806.387695312 222.447265625 836.314453125 231.470703125 858.759765625 249.517578125 c 0
 881.205078125 267.564453125 892.427734375 293.176757812 892.427734375 326.353515625 c 0
 892.427734375 340.9375 890.432617188 354.609375 886.44140625 367.369140625 c 0
 882.452148438 380.129882812 875.967773438 391.159179688 866.990234375 400.456054688 c 0
 858.01171875 409.751953125 846.415039062 417.043945312 832.200195312 422.331054688 c 0
 817.983398438 427.618164062 800.900390625 430.259765625 780.94921875 430.259765625 c 0
 761.99609375 430.259765625 744.538085938 427.890625 728.577148438 423.150390625 c 0
 712.6171875 418.411132812 700.395507812 413.489257812 691.916015625 408.384765625 c 1
 691.916015625 228.462890625 l 1
443.076171875 515.288085938 m 0
 480.828125 487.55859375 567.314453125 502.34765625 567.314453125 502.34765625 c 1
 567.314453125 454.28515625 l 1
 569.106445312 446.612304688 471.626953125 469.83203125 445.134765625 443.80859375 c 0
 417.385742188 416.551757812 432.09375 306.396484375 432.09375 306.396484375 c 2
 430.5859375 290.510742188 433.465820312 277.126953125 436.211914062 266.651367188 c 0
 438.95703125 256.17578125 443.076171875 247.959960938 448.567382812 242.00390625 c 0
 454.05859375 236.046875 460.921875 231.8359375 469.159179688 229.37109375 c 0
 477.395507812 226.90625 487.005859375 225.673828125 497.98828125 225.673828125 c 0
 517.20703125 225.673828125 532.650390625 227.625 544.319335938 231.52734375 c 0
 555.98828125 235.430664062 564.110351562 238.203125 568.6875 239.846679688 c 1
 581.041992188 192.399414062 l 1
 574.635742188 189.5234375 563.423828125 185.928710938 547.408203125 181.616210938 c 0
 531.392578125 177.302734375 513.088867188 175.146484375 492.497070312 175.146484375 c 0xbe
 468.244140625 175.146484375 448.223632812 177.918945312 432.436523438 183.46484375 c 0
 416.649414062 189.009765625 403.951171875 197.329101562 394.340820312 208.419921875 c 0
 384.732421875 219.512695312 377.982421875 233.171875 374.091796875 249.397460938 c 0
 370.203125 265.625 368.2578125 284.41796875 368.2578125 305.780273438 c 2
 368.2578125 588.616210938 l 1
 426.602539062 587.383789062 l 1
 426.602539062 587.383789062 413.622070312 536.922851562 443.076171875 515.288085938 c 0
222.3984375 316.87109375 m 0
 237.727539062 302.904296875 252.828125 287.807617188 267.701171875 271.581054688 c 0
 282.572265625 255.35546875 296.643554688 238.922851562 309.9140625 222.28515625 c 0
 323.184570312 205.647460938 334.396484375 190.139648438 343.547851562 175.762695312 c 1
 268.729492188 175.762695312 l 1
 259.12109375 190.139648438 248.0234375 204.826171875 235.439453125 219.8203125 c 0
 222.856445312 234.814453125 209.69921875 249.192382812 195.971679688 262.954101562 c 0
 182.243164062 276.715820312 169.35546875 290.508789062 154.100585938 300.850585938 c 0
 140.14453125 310.3125 121.4765625 329.1015625 112.23046875 305.1640625 c 1
 113.603515625 175.762695312 l 1
 49.7685546875 175.762695312 l 1
 49.08203125 568.897460938 l 1
 115.663085938 569.513671875 l 1
 114.290039062 421.009765625 l 1
 111.5078125 427.489257812 131.84765625 377.407226562 149.983398438 394.512695312 c 0
 162.920898438 406.716796875 176.294921875 418.544921875 189.108398438 430.869140625 c 0
 201.920898438 443.192382812 214.046875 455.00390625 225.487304688 466.299804688 c 0
 236.927734375 477.59765625 246.765625 487.55859375 255.001953125 496.186523438 c 1
 255.393554688 495.833984375 296.264648438 463.057617188 295.5 462.294921875 c 0
 283.14453125 449.970703125 270.33203125 437.544921875 257.060546875 425.014648438 c 0
 243.791015625 412.485351562 230.40625 399.956054688 216.907226562 387.426757812 c 0
 216.359375 386.91796875 183.944335938 351.908203125 222.3984375 316.87109375 c 0
EndSplineSet
EndChar

StartChar: Ugrave
Encoding: 217 217 80
Width: 1014
Flags: W
LayerCount: 2
Fore
SplineSet
1004.63476562 661.834960938 m 6
 1033.35253906 690.552734375 989.502929688 734.46484375 960.75390625 705.715820312 c 6
 374.615234375 119.576171875 l 6
 345.897460938 90.8583984375 389.747070312 46.9462890625 418.49609375 75.6953125 c 6
 1004.63476562 661.834960938 l 6
654.634765625 691.834960938 m 6
 683.352539062 720.552734375 639.502929688 764.46484375 610.75390625 735.715820312 c 6
 24.615234375 149.576171875 l 6
 -4.1025390625 120.858398438 39.7470703125 76.9462890625 68.49609375 105.6953125 c 6
 654.634765625 691.834960938 l 6
EndSplineSet
EndChar

StartChar: Uacute
Encoding: 218 218 81
Width: 965
Flags: W
HStem: 182.4 45.0996<112.121 244.568 692.245 857.702> 402.944 57.1211<462.688 587.983> 430.26 44.8447<111.8 245.2 692.316 857.996>
VStem: 56 55.7998<87.25 201.65 237.578 433.646> 272.6 58.2002<255.798 402.313> 372.742 67.2578<0 221.589 277.281 380.876> 622.336 69.5801<225.211 418.198 455.964 599.792> 892.428 72.5723<261.158 396.463>
LayerCount: 2
Fore
SplineSet
519.551757812 460.065429688 m 0xdf
 539.319335938 460.065429688 556.313476562 458.63671875 570.537109375 455.78125 c 0
 584.760742188 452.92578125 594.764648438 450.306640625 600.55078125 447.926757812 c 1
 588.255859375 390.807617188 l 1
 582.470703125 393.663085938 574.2734375 396.399414062 563.666992188 399.017578125 c 0
 553.059570312 401.63671875 540.04296875 402.944335938 524.614257812 402.944335938 c 0
 493.275390625 402.944335938 471.338867188 394.495117188 458.802734375 377.59765625 c 0
 446.267578125 360.69921875 440 337.970703125 440 309.41015625 c 2
 440 277.28125 l 1
 584.639648438 277.28125 l 1
 584.639648438 221.588867188 l 1
 440 221.588867188 l 1
 440 0 l 1
 372.7421875 0 l 1
 372.7421875 310.838867188 l 2
 372.7421875 358.410903535 384.553710938 395.209960938 408.178710938 421.151367188 c 0
 431.802734375 447.09375 468.927734375 460.065429688 519.551757812 460.065429688 c 0xdf
272.599609375 331.450195312 m 0
 272.599609375 364.81640625 263.599609375 390.483398438 245.599609375 408.450195312 c 0
 227.599609375 426.416992188 203.599609375 435.400390625 173.599609375 435.400390625 c 0
 156.799804688 435.400390625 143.700195312 434.849609375 134.299804688 433.75 c 0
 124.899414062 432.650390625 117.399414062 431.3671875 111.799804688 429.900390625 c 1
 111.799804688 249.5 l 1
 118.599609375 244.3671875 128.400390625 239.416992188 141.200195312 234.650390625 c 0
 154 229.8828125 168 227.5 183.200195312 227.5 c 0
 199.200195312 227.5 212.900390625 230.158203125 224.299804688 235.474609375 c 0
 235.700195312 240.791992188 245 248.125 252.200195312 257.474609375 c 0
 259.400390625 266.825195312 264.600585938 277.825195312 267.799804688 290.474609375 c 0
 271 303.125 272.599609375 316.783203125 272.599609375 331.450195312 c 0
330.799804688 331.450195312 m 0
 330.799804688 309.81640625 327.700195312 289.833007812 321.5 271.5 c 0
 315.299804688 253.166992188 306.200195312 237.400390625 294.200195312 224.200195312 c 0
 282.200195312 211 267.5 200.733398438 250.099609375 193.400390625 c 0
 232.700195312 186.06640625 212.799804688 182.400390625 190.400390625 182.400390625 c 0
 172.400390625 182.400390625 156.5 184.599609375 142.700195312 189 c 0
 128.900390625 193.400390625 118.599609375 197.6171875 111.799804688 201.650390625 c 1
 111.799804688 87.25 l 1
 56 87.25 l 1
 56 466.200195312 l 1
 69.2001953125 469.1328125 85.7001953125 472.341796875 105.5 475.825195312 c 0
 125.299804688 479.30859375 148.200195312 481.049804688 174.200195312 481.049804688 c 0
 198.200195312 481.049804688 219.799804688 477.56640625 239 470.599609375 c 0
 258.200195312 463.6328125 274.599609375 453.733398438 288.200195312 440.900390625 c 0
 301.799804688 428.06640625 312.299804688 412.391601562 319.700195312 393.875 c 0
 327.099609375 375.358398438 330.799804688 354.549804688 330.799804688 331.450195312 c 0
691.916015625 455.963867188 m 1
 700.395507812 459.973632812 713.239257812 464.166992188 730.447265625 468.541992188 c 0
 747.65625 472.916015625 767.481445312 475.104492188 789.927734375 475.104492188 c 0xbf
 817.859375 475.104492188 842.673828125 471.458007812 864.37109375 464.166992188 c 0
 886.067382812 456.875 904.3984375 446.666992188 919.361328125 433.541992188 c 0
 934.326171875 420.416015625 945.672851562 404.739257812 953.403320312 386.509765625 c 0
 961.134765625 368.28125 965 348.229492188 965 326.353515625 c 0
 965 303.384765625 960.38671875 282.694335938 951.159179688 264.283203125 c 0
 941.932617188 245.87109375 928.838867188 230.28515625 911.879882812 217.525390625 c 0
 894.920898438 204.764648438 874.471679688 194.920898438 850.530273438 187.993164062 c 0
 826.587890625 181.06640625 799.654296875 177.602539062 769.7265625 177.602539062 c 0
 737.306640625 177.602539062 708.625 179.244140625 683.686523438 182.524414062 c 0
 658.747070312 185.805664062 638.296875 189.086914062 622.3359375 192.368164062 c 1
 622.3359375 599.791992188 l 1
 692.239257812 601.556640625 l 1
 691.916015625 455.963867188 l 1
691.916015625 228.462890625 m 1
 698.899414062 227.00390625 708.75 225.63671875 721.469726562 224.361328125 c 0
 734.188476562 223.084960938 750.025390625 222.447265625 768.978515625 222.447265625 c 0
 806.387695312 222.447265625 836.314453125 231.470703125 858.759765625 249.517578125 c 0
 881.205078125 267.564453125 892.427734375 293.176757812 892.427734375 326.353515625 c 0
 892.427734375 340.9375 890.432617188 354.609375 886.44140625 367.369140625 c 0
 882.452148438 380.129882812 875.967773438 391.159179688 866.990234375 400.456054688 c 0
 858.01171875 409.751953125 846.415039062 417.043945312 832.200195312 422.331054688 c 0
 817.983398438 427.618164062 800.900390625 430.259765625 780.94921875 430.259765625 c 0
 761.99609375 430.259765625 744.538085938 427.890625 728.577148438 423.150390625 c 0
 712.6171875 418.411132812 700.395507812 413.489257812 691.916015625 408.384765625 c 1
 691.916015625 228.462890625 l 1
EndSplineSet
EndChar

StartChar: Ucircumflex
Encoding: 219 219 82
Width: 965
Flags: W
HStem: 221 52<745.928 851> 482.67 46.7402<210.241 330.64 396.522 527.894>
VStem: 150.64 59.5205<226.74 480.142> 347.12 59.5195<226.74 462.256> 543.6 59.5205<226.74 467.844> 656.3 78.7002<352.572 593.52>
LayerCount: 2
Fore
SplineSet
851 221 m 1
 802.266601562 221.643554688 711.30078125 227.084960938 690.900390625 238.342773438 c 1
 670.5 249.600585938 656.299804688 268.133644664 656.299804688 291.934570312 c 2
 656.299804688 593.014648438 l 1
 679.595703125 595.290039062 735 596 735 596 c 1
 735.761261267 332.448645558 725.924561251 302.577064091 755 287 c 0
 759.350788156 284.669080541 745.848632812 281.370117188 854 273 c 1
 851 221 l 1
150.639648438 514.58984375 m 1
 164.29296875 517.629882812 182.3203125 520.860351562 204.719726562 524.280273438 c 0
 227.120117188 527.700195312 253.040039062 529.41015625 282.48046875 529.41015625 c 0
 303.813476562 529.41015625 321.733398438 526.844726562 336.240234375 521.71484375 c 0
 350.747070312 516.584960938 362.90625 509.080078125 372.719726562 499.200195312 c 1
 375.70703125 501.099609375 380.400390625 503.759765625 386.799804688 507.1796875 c 0
 393.200195312 510.599609375 401.09375 513.924804688 410.48046875 517.155273438 c 0
 419.866210938 520.384765625 430.3203125 523.235351562 441.83984375 525.705078125 c 0
 453.360351562 528.174804688 465.733398438 529.41015625 478.959960938 529.41015625 c 0
 504.559570312 529.41015625 525.466796875 526.084960938 541.6796875 519.434570312 c 0
 557.893554688 512.78515625 570.586914062 503.379882812 579.759765625 491.219726562 c 0
 588.93359375 479.059570312 595.120117188 464.620117188 598.3203125 447.900390625 c 0
 601.51953125 431.1796875 603.120117188 412.940429688 603.120117188 393.1796875 c 2
 603.120117188 226.740234375 l 1
 543.599609375 226.740234375 l 1
 543.599609375 381.780273438 l 2
 543.599609375 399.259765625 542.639648438 414.26953125 540.719726562 426.809570312 c 0
 538.799804688 439.349609375 535.172851562 449.799804688 529.83984375 458.16015625 c 0
 524.506835938 466.51953125 517.252929688 472.6953125 508.080078125 476.684570312 c 0
 498.90625 480.674804688 487.06640625 482.669921875 472.559570312 482.669921875 c 0
 452.506835938 482.669921875 435.973632812 480.294921875 422.959960938 475.544921875 c 0
 409.946289062 470.794921875 401.09375 466.51953125 396.400390625 462.719726562 c 1
 399.813476562 452.83984375 402.373046875 442.009765625 404.080078125 430.23046875 c 0
 405.787109375 418.450195312 406.639648438 406.099609375 406.639648438 393.1796875 c 2
 406.639648438 226.740234375 l 1
 347.120117188 226.740234375 l 1
 347.120117188 381.780273438 l 2
 347.120117188 399.259765625 346.053710938 414.26953125 343.919921875 426.809570312 c 0
 341.787109375 439.349609375 338.053710938 449.799804688 332.719726562 458.16015625 c 0
 327.38671875 466.51953125 320.133789062 472.6953125 310.959960938 476.684570312 c 0
 301.787109375 480.674804688 290.16015625 482.669921875 276.080078125 482.669921875 c 0
 270.106445312 482.669921875 263.70703125 482.48046875 256.879882812 482.099609375 c 0
 250.053710938 481.719726562 243.546875 481.245117188 237.360351562 480.674804688 c 0
 231.172851562 480.10546875 225.51953125 479.440429688 220.400390625 478.6796875 c 0
 215.280273438 477.919921875 211.866210938 477.349609375 210.16015625 476.969726562 c 1
 210.16015625 226.740234375 l 1
 150.639648438 226.740234375 l 1
 150.639648438 514.58984375 l 1
EndSplineSet
EndChar

StartChar: Udieresis
Encoding: 220 220 83
Width: 965
Flags: W
HStem: 486.97 47.3105<170.16 235.8 236.738 241.103 243.478 294.412 356.623 431.622 433.238 438.341 440.157 491.529 691.297 877.881> 492.67 46.7402<171.113 290.64 356.522 487.894>
VStem: 110.64 59.5205<236.74 490.142> 307.12 59.5195<236.74 472.256> 503.6 59.5205<236.74 477.844> 597.949 93.0928<240.085 485.201>
LayerCount: 2
Fore
SplineSet
790.140625 534.578125 m 4x3c
 798.1484375 534.578125 807.325195312 534.30078125 817.66796875 533.74609375 c 4
 828.01171875 533.190429688 838.189453125 532.452148438 848.19921875 531.52734375 c 4
 858.208984375 530.603515625 867.384765625 529.678710938 875.7265625 528.75390625 c 4
 884.068359375 527.830078125 890.240234375 526.998046875 894.245117188 526.258789062 c 5
 878.228515625 481.336914062 l 5
 870.888671875 482.815429688 858.708984375 484.571289062 841.692382812 486.604492188 c 4
 824.67578125 488.637695312 802.8203125 489.655273438 776.126953125 489.655273438 c 4
 758.776367188 489.655273438 741.591796875 488.637695312 724.575195312 486.604492188 c 4
 707.55859375 484.571289062 696.380859375 483.184570312 691.041992188 482.4453125 c 5
 691.041992188 240.084960938 l 5
 597.94921875 240.084960938 l 5
 597.94921875 516.276367188 l 5
 619.971679688 520.712890625 647.33203125 524.872070312 680.03125 528.75390625 c 4
 712.73046875 532.63671875 749.43359375 534.578125 790.140625 534.578125 c 4x3c
110.639648438 524.58984375 m 5
 124.29296875 527.629882812 142.3203125 530.860351562 164.719726562 534.280273438 c 4xbc
 187.120117188 537.700195312 213.040039062 539.41015625 242.48046875 539.41015625 c 4
 263.813476562 539.41015625 281.733398438 536.844726562 296.240234375 531.71484375 c 4
 310.747070312 526.584960938 322.90625 519.080078125 332.719726562 509.200195312 c 5
 335.70703125 511.099609375 340.400390625 513.759765625 346.799804688 517.1796875 c 4
 353.200195312 520.599609375 361.09375 523.924804688 370.48046875 527.155273438 c 4
 379.866210938 530.384765625 390.3203125 533.235351562 401.83984375 535.705078125 c 4
 413.360351562 538.174804688 425.733398438 539.41015625 438.959960938 539.41015625 c 4
 464.559570312 539.41015625 485.466796875 536.084960938 501.6796875 529.434570312 c 4
 517.893554688 522.78515625 530.586914062 513.379882812 539.759765625 501.219726562 c 4
 548.93359375 489.059570312 555.120117188 474.620117188 558.3203125 457.900390625 c 4
 561.51953125 441.1796875 563.120117188 422.940429688 563.120117188 403.1796875 c 6
 563.120117188 236.740234375 l 5
 503.599609375 236.740234375 l 5
 503.599609375 391.780273438 l 6
 503.599609375 409.259765625 502.639648438 424.26953125 500.719726562 436.809570312 c 4
 498.799804688 449.349609375 495.172851562 459.799804688 489.83984375 468.16015625 c 4
 484.506835938 476.51953125 477.252929688 482.6953125 468.080078125 486.684570312 c 4
 458.90625 490.674804688 447.06640625 492.669921875 432.559570312 492.669921875 c 4
 412.506835938 492.669921875 395.973632812 490.294921875 382.959960938 485.544921875 c 4
 369.946289062 480.794921875 361.09375 476.51953125 356.400390625 472.719726562 c 5
 359.813476562 462.83984375 362.373046875 452.009765625 364.080078125 440.23046875 c 4
 365.787109375 428.450195312 366.639648438 416.099609375 366.639648438 403.1796875 c 6
 366.639648438 236.740234375 l 5
 307.120117188 236.740234375 l 5
 307.120117188 391.780273438 l 6
 307.120117188 409.259765625 306.053710938 424.26953125 303.919921875 436.809570312 c 4
 301.787109375 449.349609375 298.053710938 459.799804688 292.719726562 468.16015625 c 4
 287.38671875 476.51953125 280.133789062 482.6953125 270.959960938 486.684570312 c 4
 261.787109375 490.674804688 250.16015625 492.669921875 236.080078125 492.669921875 c 4x7c
 230.106445312 492.669921875 223.70703125 492.48046875 216.879882812 492.099609375 c 4
 210.053710938 491.719726562 203.546875 491.245117188 197.360351562 490.674804688 c 4
 191.172851562 490.10546875 185.51953125 489.440429688 180.400390625 488.6796875 c 4
 175.280273438 487.919921875 171.866210938 487.349609375 170.16015625 486.969726562 c 5xbc
 170.16015625 236.740234375 l 5
 110.639648438 236.740234375 l 5
 110.639648438 524.58984375 l 5
EndSplineSet
EndChar

StartChar: Yacute
Encoding: 221 221 84
Width: 1067
Flags: W
HStem: 540.443 67.5566<420.365 684.192>
LayerCount: 2
Fore
SplineSet
914.650390625 283.211914062 m 1
 915.127929688 382.799804688 l 1
 885.629882812 449.15234375 837.96484375 524.900390625 771.90625 559.379882812 c 0
 709.805664062 591.793945312 636.836914062 608 553 608 c 0
 468.38671875 608 394.884765625 591.081054688 332.345703125 557.6640625 c 0
 265.975585938 522.200195312 218.234375 445.529296875 189.125 377.65234375 c 1
 188.647460938 278.063476562 l 1
 218.920898438 348.9921875 266.953125 431.287109375 332.7421875 474.950195312 c 0
 398.530273438 518.612304688 471.790039062 540.443359375 552.522460938 540.443359375 c 0
 632.477539062 540.443359375 705.532226562 519.09765625 771.428710938 475.807617188 c 0
 835.859375 433.48046875 883.599609375 352.614257812 914.650390625 283.211914062 c 1
EndSplineSet
EndChar

StartChar: Thorn
Encoding: 222 222 85
Width: 936
Flags: W
LayerCount: 2
Fore
SplineSet
906.448242188 748.32421875 m 6
 927.491210938 762.967773438 904.172851562 809.075195312 867.068359375 781.592773438 c 6
 506.403320312 393.849609375 l 6
 474.612304688 359.670898438 498.997070312 325.12109375 532.83984375 350.188476562 c 6
 906.448242188 748.32421875 l 6
894.407226562 -164.373046875 m 0
 921.814453125 -175.379882812 944.6171875 -142.979492188 924.09375 -122.126953125 c 0
 47.6494140625 768.293945312 47.6494140625 768.293945312 42.005859375 770.560546875 c 0
 14.5986328125 781.568359375 -8.203125 749.171875 12.322265625 728.319335938 c 0
 888.762695312 -162.10546875 888.762695312 -162.10546875 894.407226562 -164.373046875 c 0
EndSplineSet
EndChar

StartChar: germandbls
Encoding: 223 223 86
Width: 998
Flags: W
LayerCount: 2
Fore
SplineSet
54.353515625 -156.969726562 m 2
 40.453125 -178.51171875 -6.439453125 -156.81640625 19.7314453125 -118.775390625 c 2
 394.651367188 255.202148438 l 2
 427.69921875 288.166992188 463.079101562 265.001953125 439.208007812 230.305664062 c 2
 54.353515625 -156.969726562 l 2
969.774414062 -141.961914062 m 4
 980.516601562 -170.119140625 947.053710938 -192.807617188 926.14453125 -171.49609375 c 4
 33.2978515625 738.5546875 33.2978515625 738.5546875 31.0859375 744.353515625 c 4
 20.34375 772.51171875 53.802734375 795.198242188 74.7119140625 773.885742188 c 4
 967.5625 -136.162109375 967.5625 -136.162109375 969.774414062 -141.961914062 c 4
EndSplineSet
EndChar

StartChar: uni0094
Encoding: 148 148 87
Width: 1000
Flags: M
HStem: 40 60 334 248<1083 1083>
LayerCount: 2
Fore
SplineSet
-85 580 m 1
 1083 582 l 1
 1334 583 1333 334 1083 334 c 1
 -83 332 l 1
 -335 336 -331 582 -85 580 c 1
EndSplineSet
EndChar

StartChar: uni0095
Encoding: 149 149 88
Width: 776
Flags: W
HStem: 590.202 102.96<443.771 498.707>
LayerCount: 2
Fore
SplineSet
308.416015625 77.064453125 m 1
 199.295898438 77.064453125 l 1
 199.295898438 77.064453125 178.17578125 693.162109375 451.189453125 693.162109375 c 24
 722.896484375 693.162109375 695.337890625 77.064453125 695.337890625 77.064453125 c 1
 596.778320312 77.064453125 l 1
 596.778320312 77.064453125 619.6171875 593.5234375 451.548828125 590.202148438 c 0
 282.600585938 586.864257812 308.416015625 77.064453125 308.416015625 77.064453125 c 1
420.65625 626.194335938 m 2
 101.967773438 442.059570312 l 2
 66.2265625 422.678710938 36.6845703125 477.252929688 72.3857421875 496.612304688 c 2
 391.07421875 680.747070312 l 2
 426.815429688 700.127929688 456.357421875 645.553710938 420.65625 626.194335938 c 2
402.041015625 614.96484375 m 2
 105.08984375 123.362304688 l 2
 82.677734375 89.4404296875 30.92578125 123.686523438 53.3134765625 157.572265625 c 2
 350.264648438 649.174804688 l 2
 372.676757812 683.096679688 424.428710938 648.849609375 402.041015625 614.96484375 c 2
EndSplineSet
EndChar

StartChar: F
Encoding: 70 70 89
Width: 776
Flags: HW
HStem: 590.202 102.96<443.771 498.707>
LayerCount: 2
Fore
SplineSet
308.416015625 77.064453125 m 1
 199.295898438 77.064453125 l 1
 199.295898438 77.064453125 178.17578125 693.162109375 451.189453125 693.162109375 c 24
 722.896484375 693.162109375 695.337890625 77.064453125 695.337890625 77.064453125 c 1
 596.778320312 77.064453125 l 1
 596.778320312 77.064453125 619.6171875 593.5234375 451.548828125 590.202148438 c 0
 282.600585938 586.864257812 308.416015625 77.064453125 308.416015625 77.064453125 c 1
420.65625 626.194335938 m 2
 101.967773438 442.059570312 l 2
 66.2265625 422.678710938 36.6845703125 477.252929688 72.3857421875 496.612304688 c 2
 391.07421875 680.747070312 l 2
 426.815429688 700.127929688 456.357421875 645.553710938 420.65625 626.194335938 c 2
402.041015625 614.96484375 m 2
 105.08984375 123.362304688 l 2
 82.677734375 89.4404296875 30.92578125 123.686523438 53.3134765625 157.572265625 c 2
 350.264648438 649.174804688 l 2
 372.676757812 683.096679688 424.428710938 648.849609375 402.041015625 614.96484375 c 2
EndSplineSet
EndChar

StartChar: G
Encoding: 71 71 90
Width: 776
Flags: W
HStem: 590.202 102.96<267.293 322.229>
LayerCount: 2
Fore
SplineSet
457.583984375 77.064453125 m 5
 566.704101562 77.064453125 l 5
 566.704101562 77.064453125 587.82421875 693.162109375 314.810546875 693.162109375 c 28
 43.103515625 693.162109375 70.662109375 77.064453125 70.662109375 77.064453125 c 5
 169.221679688 77.064453125 l 5
 169.221679688 77.064453125 146.3828125 593.5234375 314.451171875 590.202148438 c 4
 483.399414062 586.864257812 457.583984375 77.064453125 457.583984375 77.064453125 c 5
345.34375 626.194335938 m 6
 664.032226562 442.059570312 l 6
 699.7734375 422.678710938 729.315429688 477.252929688 693.614257812 496.612304688 c 6
 374.92578125 680.747070312 l 6
 339.184570312 700.127929688 309.642578125 645.553710938 345.34375 626.194335938 c 6
363.958984375 614.96484375 m 6
 660.91015625 123.362304688 l 6
 683.322265625 89.4404296875 735.07421875 123.686523438 712.686523438 157.572265625 c 6
 415.735351562 649.174804688 l 6
 393.323242188 683.096679688 341.571289062 648.849609375 363.958984375 614.96484375 c 6
EndSplineSet
EndChar

StartChar: H
Encoding: 72 72 91
Width: 776
Flags: W
HStem: 77.0645 21G<199.296 308.416 596.778 695.338> 590.202 102.96<414.703 498.707>
LayerCount: 2
Fore
SplineSet
308.416015625 77.064453125 m 1
 199.295898438 77.064453125 l 1
 199.295898438 77.064453125 178.17578125 693.162109375 451.189453125 693.162109375 c 24
 722.896484375 693.162109375 695.337890625 77.064453125 695.337890625 77.064453125 c 1
 596.778320312 77.064453125 l 1
 596.778320312 77.064453125 619.6171875 593.5234375 451.548828125 590.202148438 c 0
 282.600585938 586.864257812 308.416015625 77.064453125 308.416015625 77.064453125 c 1
391.07421875 680.747070312 m 1026
402.041015625 614.96484375 m 6
 105.08984375 123.362304688 l 6
 82.677734375 89.4404296875 30.92578125 123.686523438 53.3134765625 157.572265625 c 6
 350.264648438 649.174804688 l 6
 372.676757812 683.096679688 424.428710938 648.849609375 402.041015625 614.96484375 c 6
EndSplineSet
EndChar

StartChar: I
Encoding: 73 73 92
Width: 776
Flags: W
HStem: 590.202 102.96<267.293 351.297>
LayerCount: 2
Fore
SplineSet
457.583984375 77.064453125 m 1
 566.704101562 77.064453125 l 1
 566.704101562 77.064453125 587.82421875 693.162109375 314.810546875 693.162109375 c 24
 43.103515625 693.162109375 70.662109375 77.064453125 70.662109375 77.064453125 c 1
 169.221679688 77.064453125 l 1
 169.221679688 77.064453125 146.3828125 593.5234375 314.451171875 590.202148438 c 0
 483.399414062 586.864257812 457.583984375 77.064453125 457.583984375 77.064453125 c 1
363.958984375 614.96484375 m 2
 660.91015625 123.362304688 l 2
 683.322265625 89.4404296875 735.07421875 123.686523438 712.686523438 157.572265625 c 2
 415.735351562 649.174804688 l 2
 393.323242188 683.096679688 341.571289062 648.849609375 363.958984375 614.96484375 c 2
EndSplineSet
EndChar

StartChar: J
Encoding: 74 74 93
Width: 776
Flags: W
HStem: 590.202 102.96<348.541 421.297>
LayerCount: 2
Fore
SplineSet
332.041015625 614.96484375 m 6
 354.428710938 648.849609375 302.676757812 683.096679688 280.264648438 649.174804688 c 6
 -16.6865234375 157.572265625 l 6
 -39.07421875 123.686523438 12.677734375 89.4404296875 35.08984375 123.362304688 c 6
 332.041015625 614.96484375 l 6
527.583984375 77.064453125 m 5
 636.704101562 77.064453125 l 5
 636.704101562 77.064453125 657.82421875 693.162109375 384.810546875 693.162109375 c 28
 113.103515625 693.162109375 140.662109375 77.064453125 140.662109375 77.064453125 c 5
 239.221679688 77.064453125 l 5
 239.221679688 77.064453125 216.3828125 593.5234375 384.451171875 590.202148438 c 4
 553.399414062 586.864257812 527.583984375 77.064453125 527.583984375 77.064453125 c 5
433.958984375 614.96484375 m 6
 730.91015625 123.362304688 l 6
 753.322265625 89.4404296875 805.07421875 123.686523438 782.686523438 157.572265625 c 6
 485.735351562 649.174804688 l 6
 463.323242188 683.096679688 411.571289062 648.849609375 433.958984375 614.96484375 c 6
EndSplineSet
EndChar

StartChar: L
Encoding: 76 76 94
Width: 776
Flags: W
HStem: 263.25 142.5<330.599 430.092> 590.202 102.96<348.541 421.297>
VStem: 309.25 142.5<284.753 384.247>
LayerCount: 2
Fore
SplineSet
380.349609375 405.75 m 4
 360.549804688 405.75 343.75 398.799804688 329.950195312 384.900390625 c 4
 316.150390625 371 309.25 354.25 309.25 334.650390625 c 4
 309.25 314.849609375 316.150390625 298 329.950195312 284.099609375 c 4
 343.75 270.200195312 360.549804688 263.25 380.349609375 263.25 c 260
 400.150390625 263.25 417 270.200195312 430.900390625 284.099609375 c 4
 444.799804688 298 451.75 314.849609375 451.75 334.650390625 c 4
 451.75 354.25 444.75 371 430.75 384.900390625 c 4
 416.75 398.799804688 399.94921875 405.75 380.349609375 405.75 c 4
332.041015625 614.96484375 m 2
 354.428710938 648.849609375 302.676757812 683.096679688 280.264648438 649.174804688 c 2
 -16.6865234375 157.572265625 l 2
 -39.07421875 123.686523438 12.677734375 89.4404296875 35.08984375 123.362304688 c 2
 332.041015625 614.96484375 l 2
527.583984375 77.064453125 m 1
 636.704101562 77.064453125 l 1
 636.704101562 77.064453125 657.82421875 693.162109375 384.810546875 693.162109375 c 24
 113.103515625 693.162109375 140.662109375 77.064453125 140.662109375 77.064453125 c 1
 239.221679688 77.064453125 l 1
 239.221679688 77.064453125 216.3828125 593.5234375 384.451171875 590.202148438 c 0
 553.399414062 586.864257812 527.583984375 77.064453125 527.583984375 77.064453125 c 1
433.958984375 614.96484375 m 2
 730.91015625 123.362304688 l 2
 753.322265625 89.4404296875 805.07421875 123.686523438 782.686523438 157.572265625 c 2
 485.735351562 649.174804688 l 2
 463.323242188 683.096679688 411.571289062 648.849609375 433.958984375 614.96484375 c 2
EndSplineSet
EndChar

StartChar: M
Encoding: 77 77 95
Width: 776
Flags: W
HStem: 77.0645 21G<199.296 308.416 596.778 695.338> 263.25 142.5<400.599 500.092> 590.202 102.96<414.703 498.707>
VStem: 379.25 142.5<284.753 384.247>
LayerCount: 2
Fore
SplineSet
450.349609375 405.75 m 4
 430.549804688 405.75 413.75 398.799804688 399.950195312 384.900390625 c 4
 386.150390625 371 379.25 354.25 379.25 334.650390625 c 4
 379.25 314.849609375 386.150390625 298 399.950195312 284.099609375 c 4
 413.75 270.200195312 430.549804688 263.25 450.349609375 263.25 c 260
 470.150390625 263.25 487 270.200195312 500.900390625 284.099609375 c 4
 514.799804688 298 521.75 314.849609375 521.75 334.650390625 c 4
 521.75 354.25 514.75 371 500.75 384.900390625 c 4
 486.75 398.799804688 469.94921875 405.75 450.349609375 405.75 c 4
308.416015625 77.064453125 m 1
 199.295898438 77.064453125 l 1
 199.295898438 77.064453125 178.17578125 693.162109375 451.189453125 693.162109375 c 24
 722.896484375 693.162109375 695.337890625 77.064453125 695.337890625 77.064453125 c 1
 596.778320312 77.064453125 l 1
 596.778320312 77.064453125 619.6171875 593.5234375 451.548828125 590.202148438 c 0
 282.600585938 586.864257812 308.416015625 77.064453125 308.416015625 77.064453125 c 1
391.07421875 680.747070312 m 1026
402.041015625 614.96484375 m 2
 105.08984375 123.362304688 l 2
 82.677734375 89.4404296875 30.92578125 123.686523438 53.3134765625 157.572265625 c 2
 350.264648438 649.174804688 l 2
 372.676757812 683.096679688 424.428710938 648.849609375 402.041015625 614.96484375 c 2
EndSplineSet
EndChar

StartChar: N
Encoding: 78 78 96
Width: 776
Flags: W
HStem: 263.25 142.5<270.599 370.092> 590.202 102.96<267.293 351.297>
VStem: 249.25 142.5<284.753 384.247>
LayerCount: 2
Fore
SplineSet
320.349609375 405.75 m 4
 300.549804688 405.75 283.75 398.799804688 269.950195312 384.900390625 c 4
 256.150390625 371 249.25 354.25 249.25 334.650390625 c 4
 249.25 314.849609375 256.150390625 298 269.950195312 284.099609375 c 4
 283.75 270.200195312 300.549804688 263.25 320.349609375 263.25 c 260
 340.150390625 263.25 357 270.200195312 370.900390625 284.099609375 c 4
 384.799804688 298 391.75 314.849609375 391.75 334.650390625 c 4
 391.75 354.25 384.75 371 370.75 384.900390625 c 4
 356.75 398.799804688 339.94921875 405.75 320.349609375 405.75 c 4
457.583984375 77.064453125 m 1
 566.704101562 77.064453125 l 1
 566.704101562 77.064453125 587.82421875 693.162109375 314.810546875 693.162109375 c 24
 43.103515625 693.162109375 70.662109375 77.064453125 70.662109375 77.064453125 c 1
 169.221679688 77.064453125 l 1
 169.221679688 77.064453125 146.3828125 593.5234375 314.451171875 590.202148438 c 0
 483.399414062 586.864257812 457.583984375 77.064453125 457.583984375 77.064453125 c 1
363.958984375 614.96484375 m 2
 660.91015625 123.362304688 l 2
 683.322265625 89.4404296875 735.07421875 123.686523438 712.686523438 157.572265625 c 2
 415.735351562 649.174804688 l 2
 393.323242188 683.096679688 341.571289062 648.849609375 363.958984375 614.96484375 c 2
EndSplineSet
EndChar

StartChar: O
Encoding: 79 79 97
Width: 776
Flags: W
HStem: 77.0645 21G<199.296 308.416 596.778 695.338> 263.25 142.5<400.599 500.092> 590.202 102.96<443.771 498.707>
VStem: 379.25 142.5<284.753 384.247>
LayerCount: 2
Fore
SplineSet
450.349609375 405.75 m 4
 430.549804688 405.75 413.75 398.799804688 399.950195312 384.900390625 c 4
 386.150390625 371 379.25 354.25 379.25 334.650390625 c 4
 379.25 314.849609375 386.150390625 298 399.950195312 284.099609375 c 4
 413.75 270.200195312 430.549804688 263.25 450.349609375 263.25 c 260
 470.150390625 263.25 487 270.200195312 500.900390625 284.099609375 c 4
 514.799804688 298 521.75 314.849609375 521.75 334.650390625 c 4
 521.75 354.25 514.75 371 500.75 384.900390625 c 4
 486.75 398.799804688 469.94921875 405.75 450.349609375 405.75 c 4
308.416015625 77.064453125 m 1
 199.295898438 77.064453125 l 1
 199.295898438 77.064453125 178.17578125 693.162109375 451.189453125 693.162109375 c 24
 722.896484375 693.162109375 695.337890625 77.064453125 695.337890625 77.064453125 c 1
 596.778320312 77.064453125 l 1
 596.778320312 77.064453125 619.6171875 593.5234375 451.548828125 590.202148438 c 0
 282.600585938 586.864257812 308.416015625 77.064453125 308.416015625 77.064453125 c 1
420.65625 626.194335938 m 2
 101.967773438 442.059570312 l 2
 66.2265625 422.678710938 36.6845703125 477.252929688 72.3857421875 496.612304688 c 2
 391.07421875 680.747070312 l 2
 426.815429688 700.127929688 456.357421875 645.553710938 420.65625 626.194335938 c 2
402.041015625 614.96484375 m 2
 105.08984375 123.362304688 l 2
 82.677734375 89.4404296875 30.92578125 123.686523438 53.3134765625 157.572265625 c 2
 350.264648438 649.174804688 l 2
 372.676757812 683.096679688 424.428710938 648.849609375 402.041015625 614.96484375 c 2
EndSplineSet
EndChar

StartChar: P
Encoding: 80 80 98
Width: 776
Flags: W
HStem: 263.25 142.5<270.599 370.092> 590.202 102.96<267.293 322.229>
VStem: 249.25 142.5<284.753 384.247>
LayerCount: 2
Fore
SplineSet
320.349609375 405.75 m 4
 300.549804688 405.75 283.75 398.799804688 269.950195312 384.900390625 c 4
 256.150390625 371 249.25 354.25 249.25 334.650390625 c 4
 249.25 314.849609375 256.150390625 298 269.950195312 284.099609375 c 4
 283.75 270.200195312 300.549804688 263.25 320.349609375 263.25 c 260
 340.150390625 263.25 357 270.200195312 370.900390625 284.099609375 c 4
 384.799804688 298 391.75 314.849609375 391.75 334.650390625 c 4
 391.75 354.25 384.75 371 370.75 384.900390625 c 4
 356.75 398.799804688 339.94921875 405.75 320.349609375 405.75 c 4
457.583984375 77.064453125 m 1
 566.704101562 77.064453125 l 1
 566.704101562 77.064453125 587.82421875 693.162109375 314.810546875 693.162109375 c 24
 43.103515625 693.162109375 70.662109375 77.064453125 70.662109375 77.064453125 c 1
 169.221679688 77.064453125 l 1
 169.221679688 77.064453125 146.3828125 593.5234375 314.451171875 590.202148438 c 0
 483.399414062 586.864257812 457.583984375 77.064453125 457.583984375 77.064453125 c 1
345.34375 626.194335938 m 2
 664.032226562 442.059570312 l 2
 699.7734375 422.678710938 729.315429688 477.252929688 693.614257812 496.612304688 c 2
 374.92578125 680.747070312 l 2
 339.184570312 700.127929688 309.642578125 645.553710938 345.34375 626.194335938 c 2
363.958984375 614.96484375 m 2
 660.91015625 123.362304688 l 2
 683.322265625 89.4404296875 735.07421875 123.686523438 712.686523438 157.572265625 c 2
 415.735351562 649.174804688 l 2
 393.323242188 683.096679688 341.571289062 648.849609375 363.958984375 614.96484375 c 2
EndSplineSet
EndChar

StartChar: Q
Encoding: 81 81 99
Width: 840
Flags: W
VStem: 109.26 62.0693<80.927 741.073> 669.26 62.0693<80.927 741.073>
LayerCount: 2
Fore
SplineSet
171.329101562 100.655273438 m 6
 171.329101562 60.0283203125 109.259765625 60.0283203125 109.259765625 100.655273438 c 6
 109.259765625 721.344726562 l 6
 109.259765625 761.971679688 171.329101562 761.971679688 171.329101562 721.344726562 c 6
 171.329101562 100.655273438 l 6
731.329101562 100.655273438 m 2
 731.329101562 60.0283203125 669.259765625 60.0283203125 669.259765625 100.655273438 c 2
 669.259765625 721.344726562 l 2
 669.259765625 761.971679688 731.329101562 761.971679688 731.329101562 721.344726562 c 2
 731.329101562 100.655273438 l 2
EndSplineSet
EndChar

StartChar: R
Encoding: 82 82 100
Width: 840
Flags: W
VStem: 109.26 62.0693<-149.073 741.073> 669.26 62.0693<-149.073 741.073>
LayerCount: 2
Fore
SplineSet
171.329101562 -129.344726562 m 6
 171.329101562 -169.971679688 109.259765625 -169.971679688 109.259765625 -129.344726562 c 6
 109.259765625 721.344726562 l 2
 109.259765625 761.971679688 171.329101562 761.971679688 171.329101562 721.344726562 c 2
 171.329101562 -129.344726562 l 6
731.329101562 -129.344726562 m 6
 731.329101562 -169.971679688 669.259765625 -169.971679688 669.259765625 -129.344726562 c 6
 669.259765625 721.344726562 l 2
 669.259765625 761.971679688 731.329101562 761.971679688 731.329101562 721.344726562 c 2
 731.329101562 -129.344726562 l 6
EndSplineSet
EndChar
